<svg width="41" height="38" viewBox="0 0 41 38" fill="none" xmlns="http://www.w3.org/2000/svg">
<path d="M39.7188 7.94967H23.0625V1.78328C23.0625 1.41576 22.8934 1.06798 22.5987 0.833656C22.3066 0.599333 21.9145 0.498204 21.5455 0.572201L1.0455 4.27203C0.438187 4.38056 0 4.88867 0 5.48311V32.6152C0 33.2072 0.438187 33.7178 1.0455 33.8263L21.5455 37.5261C21.6224 37.5409 21.7018 37.5483 21.7812 37.5483C22.0785 37.5483 22.3681 37.4497 22.5987 37.2647C22.8934 37.0304 23.0625 36.6801 23.0625 36.3151V30.1487H39.7188C40.426 30.1487 41 29.5962 41 28.9154V9.18295C41 8.50218 40.426 7.94967 39.7188 7.94967ZM11.5312 27.6821C8.00012 27.6821 5.125 24.3621 5.125 20.2824C5.125 16.2028 8.00012 12.8828 11.5312 12.8828C15.0624 12.8828 17.9375 16.2028 17.9375 20.2824C17.9375 24.3621 15.0624 27.6821 11.5312 27.6821ZM23.0625 10.4162H35.9852L28.1132 16.3088L23.0625 13.2182V10.4162ZM38.4375 27.6821H23.0625V16.1411L27.4982 18.8568C27.7083 18.985 27.9492 19.0492 28.1875 19.0492C28.4643 19.0492 28.7436 18.9628 28.9742 18.7902L38.4375 11.7038V27.6821Z" fill="#2190E1"/>
<path d="M11.5312 25.2155C13.6541 25.2155 15.375 23.0069 15.375 20.2824C15.375 17.5579 13.6541 15.3493 11.5312 15.3493C9.40841 15.3493 7.6875 17.5579 7.6875 20.2824C7.6875 23.0069 9.40841 25.2155 11.5312 25.2155Z" fill="#2190E1"/>
</svg>
