<svg width="32" height="32" viewBox="0 0 32 32" fill="none" xmlns="http://www.w3.org/2000/svg">
<path d="M29.9669 14.8109C29.2443 21.9869 31.2327 26.3573 15.5138 26.3573C12.9567 26.3573 10.1455 31.1957 8.27603 30.4162L8.0565 28.3524C7.89598 27.0865 7.72537 26.2737 7.51328 25.7631L4.81851 25.2243C2.64825 21.3952 1.22737 16.6725 1.22737 14.8108C1.22738 5.47657 -0.205099 1.5918 15.5138 1.5918C24.3524 1.5918 29.9669 -0.446105 29.9669 14.8109Z" fill="#6F3FAA"/>
<path d="M30.503 7.50367L30.4939 7.46768C29.7452 4.52257 26.3702 1.36243 23.2707 0.704991L23.2358 0.697963C18.2226 -0.232654 13.1394 -0.232654 8.12727 0.697963L8.09127 0.704991C4.99288 1.36243 1.61772 4.52278 0.868128 7.46768L0.859809 7.50367C-0.0656559 11.6165 -0.0656559 15.7875 0.859809 19.9003L0.868128 19.9363C1.58587 22.7557 4.70953 25.7707 7.69333 26.5999V29.8874C7.69333 31.0773 9.18342 31.6617 10.0307 30.803L13.4536 27.3407C14.1961 27.3811 14.9389 27.4036 15.6815 27.4036C18.205 27.4036 20.7296 27.1714 23.2357 26.7061L23.2706 26.6991C26.3701 26.0417 29.7451 22.8813 30.4937 19.9364L30.5029 19.9004C31.4284 15.7875 31.4284 11.6167 30.503 7.50367ZM27.7942 19.304C27.2943 21.2254 24.7318 23.6141 22.6957 24.0554C20.0302 24.5487 17.3434 24.7595 14.6594 24.6872C14.606 24.6857 14.5546 24.7059 14.5175 24.7432C14.1366 25.1236 12.0184 27.2398 12.0184 27.2398L9.36017 29.8947C9.1658 30.092 8.82433 29.9577 8.82433 29.6856V24.2394C8.82433 24.1495 8.75833 24.0731 8.66749 24.0556C8.66695 24.0554 8.66651 24.0554 8.66596 24.0553C6.62985 23.614 4.06818 21.2253 3.56747 19.3039C2.73449 15.5863 2.73449 11.8177 3.56747 8.10009C4.06818 6.17868 6.62985 3.79004 8.66596 3.3487C13.3213 2.48709 18.0414 2.48709 22.6958 3.3487C24.7329 3.79004 27.2945 6.17868 27.7943 8.10009C28.6281 11.8178 28.6281 15.5865 27.7942 19.304Z" fill="white"/>
<path d="M20.1105 21.8177C19.7975 21.7252 19.4993 21.6631 19.222 21.5514C16.3512 20.3923 13.7092 18.897 11.6165 16.605C10.4264 15.3016 9.4949 13.8301 8.70756 12.2728C8.33413 11.5343 8.01948 10.767 7.69869 10.0044C7.40626 9.30916 7.83703 8.59091 8.29057 8.06692C8.7162 7.5752 9.26397 7.19903 9.85716 6.92159C10.3201 6.70518 10.7767 6.83 11.1149 7.21181C11.8458 8.03742 12.5173 8.9052 13.0608 9.86223C13.3952 10.4509 13.3035 11.1704 12.6975 11.5709C12.5502 11.6683 12.416 11.7827 12.2788 11.8926C12.1585 11.989 12.0453 12.0863 11.9628 12.2168C11.8121 12.4555 11.8048 12.7371 11.9018 12.9967C12.649 14.9948 13.9084 16.5487 15.9752 17.3857C16.306 17.5195 16.638 17.6753 17.0191 17.6322C17.6572 17.5597 17.8638 16.8785 18.311 16.5227C18.748 16.1749 19.3066 16.1704 19.7774 16.4603C20.2483 16.7504 20.7047 17.0616 21.1584 17.3763C21.6039 17.6851 22.0472 17.9871 22.458 18.3393C22.8531 18.6778 22.9891 19.122 22.7666 19.5813C22.3595 20.4228 21.7668 21.1226 20.9122 21.5695C20.6709 21.6954 20.3826 21.7362 20.1105 21.8177C20.3826 21.7362 19.7975 21.7252 20.1105 21.8177Z" fill="white"/>
<path d="M15.689 5.95957C19.444 6.06203 22.5282 8.48698 23.1892 12.0995C23.3018 12.7151 23.3419 13.3443 23.392 13.9692C23.4131 14.2319 23.2601 14.4816 22.9688 14.4851C22.6678 14.4886 22.5324 14.2434 22.5127 13.9809C22.4741 13.461 22.4473 12.9386 22.3736 12.4231C21.985 9.701 19.7545 7.44901 16.9702 6.96581C16.5511 6.89307 16.1226 6.874 15.698 6.83066C15.4298 6.80329 15.0784 6.78752 15.019 6.4629C14.9692 6.19079 15.2052 5.97417 15.4715 5.96021C15.5436 5.95606 15.6164 5.95936 15.689 5.95957C15.6164 5.95936 19.4442 6.06203 15.689 5.95957Z" fill="white"/>
<path d="M21.3957 13.1585C21.3894 13.2042 21.3863 13.3114 21.3587 13.4124C21.2591 13.7792 20.6873 13.8251 20.5559 13.455C20.5168 13.3452 20.511 13.2201 20.5108 13.1019C20.5095 12.3281 20.3367 11.5549 19.9356 10.8815C19.5233 10.1893 18.8933 9.60768 18.1547 9.25548C17.7079 9.04269 17.2249 8.9103 16.7353 8.8316C16.5213 8.79709 16.3051 8.77632 16.09 8.74714C15.8294 8.71189 15.6902 8.55033 15.7027 8.30047C15.7142 8.06638 15.89 7.89779 16.1523 7.91238C17.0139 7.95988 17.8464 8.14136 18.6126 8.53606C20.1704 9.33898 21.0604 10.6061 21.3203 12.2984C21.332 12.3751 21.3508 12.451 21.3568 12.5279C21.3715 12.7177 21.3808 12.9078 21.3957 13.1585C21.3808 12.9078 21.3894 13.2039 21.3957 13.1585Z" fill="white"/>
<path d="M19.06 13.0698C18.7459 13.0753 18.5778 12.906 18.5452 12.6259C18.5228 12.4306 18.5049 12.2325 18.4569 12.0423C18.3626 11.6677 18.158 11.3207 17.8343 11.0912C17.6815 10.9829 17.5083 10.904 17.3269 10.8528C17.0965 10.788 16.8571 10.8059 16.6273 10.7511C16.3777 10.6916 16.2396 10.4948 16.2789 10.267C16.3145 10.0595 16.5218 9.89762 16.7548 9.91412C18.2107 10.0164 19.2512 10.7488 19.3997 12.4166C19.4103 12.5343 19.4226 12.6586 19.3957 12.7714C19.3496 12.9638 19.2029 13.0604 19.06 13.0698C19.2029 13.0604 18.7458 13.0752 19.06 13.0698Z" fill="white"/>
</svg>
