<svg width="26" height="26" viewBox="0 0 26 26" fill="none" xmlns="http://www.w3.org/2000/svg">
<path d="M0.629425 25.4293L2.39685 19.3047C1.26029 17.4208 0.661886 15.2773 0.661886 13.0754C0.661886 6.29557 6.31513 0.779785 13.2639 0.779785C20.2127 0.779785 25.8659 6.29557 25.8659 13.0754C25.8659 19.8552 20.2127 25.371 13.2639 25.371C11.0987 25.371 8.97857 24.8302 7.103 23.8034L0.629425 25.4293Z" fill="url(#paint0_linear)"/>
<path d="M8.21317 10.3708C8.65555 11.2864 9.21621 12.1497 9.95463 12.9247C10.0526 13.0278 10.176 13.1195 10.3061 13.1942C10.496 13.3035 10.6753 13.2651 10.7525 13.083C10.8342 12.8918 10.9092 12.5045 10.9136 12.3038C10.9258 11.7794 10.9118 11.4357 10.8782 10.9119C10.8564 10.5765 10.7141 10.2819 10.1254 10.193C9.94353 10.1654 9.92664 10.04 10.0435 9.91487C10.2866 9.65436 10.6254 9.61284 10.9928 9.59641C11.5882 9.56946 12.1858 9.59145 12.7819 9.59641C13.0247 9.59828 13.269 9.61467 13.5082 9.65836C13.8201 9.71536 13.9871 9.89874 14.0385 10.154C14.0651 10.2856 14.0788 10.421 14.0751 10.5542C14.0596 11.1266 14.0267 11.6987 14.0189 12.2708C14.0156 12.4954 14.0352 12.7255 14.0925 12.9442C14.1727 13.249 14.4203 13.3255 14.6735 13.1053C14.995 12.8256 15.2785 12.5109 15.5445 12.1912C16.0279 11.6098 16.389 10.9717 16.6998 10.3138C16.8606 9.97438 16.9837 9.90065 17.4194 9.89973C18.2384 9.89817 19.0574 9.89756 19.8763 9.89973C20.0216 9.90034 20.1735 9.91181 20.3106 9.94838C20.5331 10.0079 20.6214 10.1599 20.5693 10.3529C20.4477 10.8052 20.1561 11.1896 19.8438 11.5591C19.3427 12.152 18.8175 12.7306 18.3045 13.3166C18.2391 13.3913 18.1815 13.4709 18.1279 13.5517C17.936 13.8422 17.9494 14.0052 18.2291 14.2471C18.6745 14.6321 19.1512 14.9923 19.5825 15.3879C19.8959 15.6756 20.186 15.9878 20.4344 16.3165C20.7485 16.7322 20.5545 17.1237 19.9676 17.1934C19.5984 17.2371 17.795 17.1937 17.7018 17.1934C17.2169 17.1915 16.7919 17.0506 16.4496 16.7746C16.069 16.4673 15.723 16.1303 15.3575 15.8097C15.2474 15.7131 15.1299 15.6205 15.0031 15.5396C14.7041 15.3485 14.4107 15.3909 14.271 15.6852C14.1516 15.938 14.0485 16.6017 14.0437 16.6584C14.0185 16.9549 13.7935 17.1438 13.3973 17.1621C12.2534 17.2141 11.145 17.1073 10.1125 16.6436C9.23731 16.2508 8.53845 15.6954 7.93308 15.0477C6.97144 14.019 6.21187 12.8882 5.51841 11.7242C5.48296 11.6647 4.78059 10.412 4.76171 10.3529C4.69897 10.1547 4.7575 9.96548 4.95722 9.90034C5.08173 9.85974 7.3975 9.9002 7.43602 9.90194C7.80554 9.91871 8.05751 10.0494 8.21317 10.3708Z" fill="white"/>
<defs>
<linearGradient id="paint0_linear" x1="13.2476" y1="-0.100555" x2="13.2476" y2="25.4293" gradientUnits="userSpaceOnUse">
<stop stop-color="#31A0F1"/>
<stop offset="1" stop-color="#1A72DC"/>
</linearGradient>
</defs>
</svg>
