<svg width="32" height="32" viewBox="0 0 32 32" fill="none" xmlns="http://www.w3.org/2000/svg">
<path d="M0.316406 31.287L2.50296 23.3385C1.1542 21.0121 0.444765 18.3732 0.445756 15.6696C0.449225 7.21199 7.36323 0.331055 15.8592 0.331055C19.982 0.332781 23.8518 1.93023 26.7619 4.82962C29.6718 7.72901 31.2738 11.583 31.2723 15.682C31.2686 24.1394 24.3536 31.0213 15.8592 31.0213C15.8587 31.0213 15.8594 31.0213 15.8592 31.0213H15.8525C13.2729 31.0203 10.7385 30.3763 8.48724 29.154L0.316406 31.287ZM8.86562 26.3772L9.33371 26.6532C11.3002 27.8151 13.5549 28.4295 15.8542 28.4308H15.8592C22.9199 28.4308 28.6668 22.7109 28.6697 15.681C28.671 12.2742 27.3398 9.07066 24.9211 6.66092C22.5021 4.25118 19.2859 2.92334 15.8639 2.92186C8.79748 2.92186 3.05084 8.64096 3.04811 15.6706C3.04712 18.0796 3.7241 20.4255 5.00669 22.4556L5.31148 22.9381L4.01699 27.6426L8.86562 26.3772Z" fill="white"/>
<path d="M0.316406 31.287L2.44558 23.5473C1.13193 21.2823 0.441372 18.7125 0.442122 16.0806C0.445371 7.8455 7.17779 1.14575 15.4498 1.14575C19.4647 1.14749 23.2329 2.70295 26.0659 5.526C28.8996 8.34906 30.4592 12.1016 30.4577 16.0923C30.4542 24.3276 23.7215 31.0281 15.4505 31.0281C15.4498 31.0281 15.4508 31.0281 15.4505 31.0281H15.4438C12.9322 31.0271 10.4641 30.3996 8.27224 29.2104L0.316406 31.287Z" fill="#64B161"/>
<path d="M0.0055542 31.4749L2.21234 23.4163C0.851105 21.0577 0.1351 18.3822 0.136101 15.6413C0.139602 7.06645 7.11759 0.09021 15.6921 0.09021C19.8531 0.0919606 23.7588 1.71154 26.6958 4.65108C29.6326 7.59063 31.2494 11.498 31.2479 15.6538C31.2442 24.2283 24.2652 31.2055 15.6921 31.2055C15.6916 31.2055 15.6924 31.2055 15.6921 31.2055H15.6854C13.082 31.2045 10.5241 30.5516 8.25199 29.3124L0.0055542 31.4749ZM8.63388 26.4971L9.1063 26.777C11.091 27.9549 13.3666 28.5779 15.6871 28.5791H15.6921C22.8182 28.5791 28.6182 22.78 28.6212 15.6528C28.6225 12.1988 27.279 8.95087 24.8379 6.50775C22.3965 4.06463 19.1506 2.7184 15.6969 2.7169C8.5651 2.7169 2.76529 8.51521 2.76254 15.6423C2.76154 18.0846 3.44478 20.463 4.73924 22.5212L5.04685 23.0104L3.74038 27.7801L8.63388 26.4971Z" fill="white"/>
<path fill-rule="evenodd" clip-rule="evenodd" d="M11.8043 9.13985C11.5132 8.49262 11.2066 8.47962 10.9295 8.46836C10.7029 8.45861 10.4435 8.45911 10.1847 8.45911C9.92561 8.45911 9.50446 8.55665 9.14833 8.94553C8.79196 9.33442 7.7876 10.2748 7.7876 12.1872C7.7876 14.0999 9.18059 15.9478 9.37491 16.2074C9.56923 16.4667 12.0639 20.5167 16.0145 22.0747C19.2979 23.3697 19.9659 23.1121 20.6787 23.0473C21.3914 22.9825 22.9783 22.107 23.3021 21.1994C23.6262 20.2918 23.6262 19.514 23.529 19.3512C23.4317 19.1894 23.1726 19.0921 22.7839 18.8978C22.3953 18.7035 20.4844 17.7629 20.128 17.6334C19.7716 17.5036 19.5125 17.4391 19.2534 17.8282C18.9941 18.2168 18.2498 19.0921 18.023 19.3512C17.7962 19.6111 17.5693 19.6436 17.1807 19.449C16.7921 19.2542 15.5401 18.8441 14.0551 17.5198C12.8997 16.4897 12.1194 15.2173 11.8926 14.8281C11.666 14.4395 11.8888 14.2474 12.0634 14.0351C12.3777 13.6527 12.9052 12.9652 13.0347 12.7061C13.1643 12.4465 13.0995 12.2197 13.0025 12.0251C12.9052 11.8308 12.1497 9.90863 11.8043 9.13985Z" fill="white"/>
</svg>
