<svg width="41" height="41" viewBox="0 0 41 41" fill="none" xmlns="http://www.w3.org/2000/svg">
<path d="M20.5104 0C31.576 0 40.5455 8.97065 40.5455 20.035C40.5455 31.1007 31.576 40.0699 20.5104 40.0699C9.4448 40.0699 0.475525 31.1005 0.475525 20.035C0.475525 8.97065 9.44494 0 20.5104 0Z" fill="#720E9E"/>
<path d="M29.6839 15.8151L29.7052 15.8114L30.3689 15.0727L30.3363 15.0702L30.4065 14.96H21.109L21.4672 16.2322H24.0041L19.7341 20.1828C18.8626 18.9119 16.8203 15.9905 15.3953 13.7991H18.0436V12.8975L18.0799 12.6384L18.0436 12.6334V12.5282H7.98981V13.7991H11.134C12.3548 14.8071 17.6479 21.2334 17.8408 21.847C17.9183 22.4218 18.0286 25.814 17.8007 26.0694C17.5265 26.4639 14.6627 26.2509 14.1581 26.2885L14.1392 27.5344C15.0608 27.5619 17.8256 27.5332 18.7586 27.5332C20.5968 27.5332 23.8162 27.4856 24.2694 27.5219L24.3258 26.3423L20.6257 26.2871C20.5481 25.7525 20.4629 22.3778 20.5405 22.0097C20.8899 20.9416 26.5673 16.5213 27.1509 16.3549L27.7006 16.231H29.4161C29.416 16.2308 29.6839 15.8151 29.6839 15.8151ZM28.2965 24.6317L29.9043 24.7544L31.7788 17.88C31.4657 17.8687 28.6221 17.6145 28.2526 17.5456L28.2965 24.6317ZM28.0185 25.7338L28.0273 27.4129L28.8412 27.4806L29.7202 27.542L29.9781 25.8991L29.0515 25.8565C29.0516 25.8565 28.0185 25.7338 28.0185 25.7338Z" fill="white"/>
</svg>
