<svg width="85" height="93" viewBox="0 0 85 93" fill="none" xmlns="http://www.w3.org/2000/svg">
<path d="M62.6519 22H23.3588C19.8512 22 17 24.882 17 28.4274V55.5726C17 59.118 19.8512 62 23.3588 62H62.6412C66.1487 62 69 59.118 69 55.5726V28.4383C69.0107 24.8929 66.1595 22 62.6519 22ZM66.1057 55.5726C66.1057 57.4976 64.5564 59.0636 62.6519 59.0636H23.3588C21.4544 59.0636 19.905 57.4976 19.905 55.5726V28.4383C19.905 26.5133 21.4544 24.9473 23.3588 24.9473H62.6412C64.5456 24.9473 66.0949 26.5133 66.0949 28.4383V55.5726H66.1057Z" fill="#FF4848"/>
<path d="M49.7837 41.6652L62.4954 30.4925C63.0869 29.9655 63.1407 29.0696 62.603 28.4793C62.0652 27.8996 61.1511 27.8469 60.5489 28.3739L43.0191 43.7944L39.5992 40.8009C39.5885 40.7904 39.5777 40.7798 39.5777 40.7693C39.5024 40.6955 39.4271 40.6323 39.3411 40.569L25.4249 28.3634C24.8226 27.8364 23.9085 27.8891 23.3708 28.4793C22.8331 29.0696 22.8868 29.9655 23.4891 30.4925L36.3514 41.7601L23.5428 53.5125C22.9621 54.0501 22.9298 54.946 23.4783 55.5257C23.7687 55.8208 24.1558 55.9789 24.543 55.9789C24.8979 55.9789 25.2528 55.8524 25.5324 55.5995L38.5345 43.6784L42.062 46.7667C42.3416 47.0091 42.6857 47.1251 43.0299 47.1251C43.374 47.1251 43.7289 46.9986 43.9978 46.7562L47.622 43.573L60.5489 55.61C60.8285 55.8735 61.1941 56 61.549 56C61.9362 56 62.3126 55.8524 62.603 55.5573C63.1514 54.9881 63.1299 54.0817 62.5492 53.5441L49.7837 41.6652Z" fill="#FF4848"/>
<circle cx="42.5" cy="42.5" r="41.5" stroke="#FF4848" stroke-width="2"/>
<circle cx="43" cy="83" r="10" fill="#FF4848"/>
<path d="M39 82.5L42 85.5L47.5 80" stroke="white" stroke-width="2"/>
</svg>
