<svg width="85" height="93" viewBox="0 0 85 93" fill="none" xmlns="http://www.w3.org/2000/svg">
<path d="M41.0807 37L30.2581 47L40.1201 42.2432L45.3073 47L56.2581 37L46.46 41.6486L41.0807 37Z" fill="#FF4848"/>
<path d="M20.2581 66L23.4796 54.3219C21.408 50.7299 20.3172 46.6429 20.3172 42.4444C20.3172 29.5171 30.6217 19 43.2877 19C55.9537 19 66.2581 29.5171 66.2581 42.4444C66.2581 55.3717 55.9537 65.8888 43.2877 65.8888C39.3411 65.8888 35.4766 64.8577 32.0578 62.8999L20.2581 66ZM32.6611 58.6347L33.3642 59.0729C36.3449 60.9301 39.7765 61.9118 43.2877 61.9118C53.8051 61.9118 62.3615 53.1788 62.3615 42.4444C62.3615 31.71 53.8051 22.9769 43.2877 22.9769C32.7703 22.9769 24.2138 31.71 24.2138 42.4444C24.2138 46.1846 25.2553 49.8168 27.2255 52.9481L27.699 53.7006L25.8438 60.4258L32.6611 58.6347Z" fill="#FF4848"/>
<circle cx="42.5" cy="42.5" r="41.5" stroke="#FF4848" stroke-width="2"/>
<circle cx="43" cy="83" r="10" fill="#FF4848"/>
<path d="M39 82.5L42 85.5L47.5 80" stroke="white" stroke-width="2"/>
</svg>
