<svg width="85" height="93" viewBox="0 0 85 93" fill="none" xmlns="http://www.w3.org/2000/svg">
<path d="M64.9487 30.2994L64.9347 30.2452C63.8008 25.8104 58.689 21.0516 53.9946 20.0616L53.9416 20.0511C46.3487 18.6496 38.6498 18.6496 31.0584 20.0511L31.0039 20.0616C26.311 21.0516 21.1992 25.8104 20.0638 30.2452L20.0513 30.2994C18.6496 36.4928 18.6496 42.7735 20.0513 48.9668L20.0638 49.0211C21.1508 53.2666 25.8819 57.8067 30.4011 59.0553V64.0058C30.4011 65.7975 32.658 66.6775 33.9414 65.3846L39.1256 60.1709C40.25 60.2318 41.375 60.2657 42.5 60.2657C46.3222 60.2657 50.1459 59.9161 53.9416 59.2154L53.9946 59.2048C58.689 58.2148 63.8008 53.456 64.9347 49.0212L64.9487 48.967C66.3504 42.7735 66.3504 36.4928 64.9487 30.2994ZM60.8461 48.0687C60.0892 50.962 56.2078 54.5589 53.1239 55.2234C49.0866 55.9662 45.0174 56.2837 40.9523 56.1748C40.8714 56.1726 40.7937 56.2029 40.7373 56.259C40.1604 56.8319 36.9521 60.0184 36.9521 60.0184L32.9259 64.0162C32.6315 64.313 32.1144 64.1111 32.1144 63.7012V55.5004C32.1144 55.3649 32.0144 55.2498 31.8769 55.2238L31.8745 55.2233C28.7906 54.5588 24.9108 50.9618 24.1523 48.0686C22.8907 42.4705 22.8907 36.7955 24.1523 31.1974C24.9108 28.3042 28.7906 24.7072 31.8745 24.0427C38.9255 22.7452 46.0745 22.7452 53.1239 24.0427C56.2094 24.7072 60.0892 28.3042 60.8461 31.1974C62.1091 36.7957 62.1091 42.4706 60.8461 48.0687Z" fill="#FF4848"/>
<path d="M49.2084 51.8542C48.7343 51.7149 48.2825 51.6214 47.8629 51.4529C43.5149 49.7076 39.5133 47.456 36.3436 44.0045C34.541 42.0417 33.1302 39.8258 31.9376 37.4808C31.3721 36.3687 30.8955 35.2131 30.4097 34.065C29.9667 33.018 30.6192 31.9364 31.3062 31.1475C31.9509 30.4072 32.7804 29.8406 33.6788 29.423C34.38 29.0971 35.0717 29.285 35.5838 29.86C36.6909 31.1032 37.7078 32.41 38.5313 33.851C39.0376 34.7374 38.8987 35.8208 37.981 36.424C37.7579 36.5707 37.5547 36.7427 37.3469 36.9084C37.1647 37.0535 36.9932 37.2001 36.8683 37.3966C36.6399 37.7561 36.629 38.1802 36.7761 38.5711C37.9078 41.58 39.8153 43.9198 42.9456 45.18C43.4465 45.3816 43.9496 45.6164 44.5267 45.5513C45.4931 45.442 45.806 44.4164 46.4832 43.8806C47.1452 43.3569 47.9911 43.35 48.7041 43.7866C49.4173 44.2233 50.1087 44.6921 50.7959 45.1658C51.4704 45.6309 52.142 46.0858 52.7643 46.6159C53.3625 47.1257 53.5686 47.7944 53.2317 48.4863C52.6149 49.7533 51.7175 50.8073 50.4228 51.4802C50.0573 51.6699 49.6207 51.7314 49.2084 51.8542C48.7343 51.7148 49.6207 51.7314 49.2084 51.8542Z" fill="#FF4848"/>
<path d="M42.5118 27.9743C48.1992 28.1285 52.8703 31.7801 53.8714 37.22C54.0419 38.1469 54.1027 39.0946 54.1785 40.0353C54.2104 40.431 53.9788 40.807 53.5374 40.8121C53.0815 40.8174 52.8764 40.4484 52.8468 40.0528C52.7883 39.2698 52.7476 38.4834 52.6361 37.7069C52.0473 33.608 48.6691 30.2169 44.452 29.4892C43.8175 29.3796 43.168 29.3508 42.5252 29.2856C42.1189 29.2443 41.5867 29.2205 41.4966 28.7318C41.4211 28.3221 41.7786 27.9958 42.1818 27.9749C42.2914 27.969 42.4017 27.9738 42.5118 27.9743C48.1992 28.1285 42.4017 27.9738 42.5118 27.9743Z" fill="#FF4848"/>
<path d="M51.1549 38.8143C51.1455 38.883 51.1406 39.0445 51.099 39.1967C50.948 39.7492 50.0824 39.8183 49.883 39.2608C49.824 39.0953 49.8151 38.9071 49.8148 38.729C49.8128 37.5636 49.5509 36.3993 48.9435 35.3854C48.3191 34.3432 47.3651 33.4671 46.2462 32.937C45.5696 32.6164 44.8379 32.4172 44.0963 32.2985C43.7722 32.2466 43.4446 32.2152 43.119 32.1713C42.7243 32.1183 42.5136 31.8749 42.5322 31.4986C42.5497 31.146 42.816 30.8924 43.2132 30.9141C44.5184 30.9858 45.7791 31.2587 46.9394 31.8532C49.2991 33.0622 50.647 34.9705 51.0404 37.5187C51.0582 37.6341 51.0868 37.7485 51.0958 37.8643C51.1181 38.1505 51.1321 38.437 51.1549 38.8143C51.1455 38.883 51.1321 38.437 51.1549 38.8143Z" fill="#FF4848"/>
<path d="M47.6174 38.6811C47.1416 38.6894 46.8869 38.4346 46.8379 38.0125C46.8038 37.7182 46.7768 37.42 46.7042 37.1337C46.5613 36.5698 46.2515 36.0472 45.7612 35.7017C45.5297 35.5385 45.2674 35.4196 44.9927 35.3429C44.6436 35.2454 44.2812 35.2722 43.9329 35.1896C43.5548 35.1 43.3456 34.8037 43.4051 34.4604C43.4591 34.148 43.7733 33.9042 44.1261 33.9289C46.3311 34.0829 47.907 35.1858 48.1319 37.6972C48.1478 37.8744 48.1664 38.0618 48.1258 38.2313C48.0562 38.5215 47.8341 38.6669 47.6174 38.6811C47.1416 38.6894 47.8341 38.6669 47.6174 38.6811Z" fill="#FF4848"/>
<circle cx="42.5" cy="42.5" r="41.5" stroke="#FF4848" stroke-width="2"/>
<circle cx="43" cy="83" r="10" fill="#FF4848"/>
<path d="M39 82.5L42 85.5L47.5 80" stroke="white" stroke-width="2"/>
</svg>
