<svg width="85" height="85" viewBox="0 0 85 85" fill="none" xmlns="http://www.w3.org/2000/svg">
<path d="M18.2581 66L21.6897 54.3219C19.483 50.7299 18.3211 46.6429 18.3211 42.4444C18.3211 29.5171 29.2976 19 42.7896 19C56.2817 19 67.2581 29.5171 67.2581 42.4444C67.2581 55.3717 56.2817 65.8888 42.7896 65.8888C38.5856 65.8888 34.4691 64.8577 30.8274 62.8999L18.2581 66ZM31.47 58.6347L32.2189 59.0729C35.3941 60.9301 39.0494 61.9118 42.7896 61.9118C53.9929 61.9118 63.1074 53.1788 63.1074 42.4444C63.1074 31.71 53.9929 22.9769 42.7896 22.9769C31.5863 22.9769 22.4718 31.71 22.4718 42.4444C22.4718 46.1846 23.5812 49.8168 25.6799 52.9481L26.1843 53.7006L24.2081 60.4258L31.47 58.6347Z" fill="#FF4848"/>
<path d="M35.5219 38.2387C36.1919 39.6788 37.041 41.0366 38.1594 42.2555C38.3078 42.4177 38.4948 42.5619 38.6917 42.6793C38.9794 42.8513 39.2509 42.7908 39.3679 42.5044C39.4916 42.2038 39.6052 41.5946 39.6119 41.2789C39.6304 40.4541 39.6092 39.9136 39.5582 39.0898C39.5252 38.5621 39.3097 38.0989 38.418 37.959C38.1426 37.9157 38.1171 37.7184 38.294 37.5216C38.6623 37.1118 39.1754 37.0465 39.7318 37.0207C40.6336 36.9783 41.5387 37.0129 42.4416 37.0207C42.8093 37.0236 43.1793 37.0494 43.5415 37.1181C44.0139 37.2078 44.2669 37.4962 44.3447 37.8976C44.3851 38.1047 44.4058 38.3176 44.4001 38.5271C44.3767 39.4274 44.3268 40.3272 44.3151 41.227C44.31 41.5802 44.3397 41.9422 44.4265 42.2862C44.5479 42.7655 44.9229 42.8859 45.3064 42.5395C45.7934 42.0996 46.2227 41.6046 46.6257 41.1019C47.3579 40.1874 47.9047 39.1838 48.3755 38.1491C48.619 37.6152 48.8054 37.4992 49.4653 37.4978C50.7057 37.4953 51.9461 37.4943 53.1865 37.4978C53.4065 37.4987 53.6365 37.5168 53.8442 37.5743C54.1812 37.6678 54.315 37.907 54.236 38.2106C54.0519 38.9219 53.6102 39.5264 53.1373 40.1076C52.3782 41.0401 51.5828 41.9502 50.8059 42.8719C50.7069 42.9893 50.6196 43.1145 50.5383 43.2416C50.2478 43.6986 50.268 43.9549 50.6917 44.3353C51.3662 44.9409 52.0883 45.5075 52.7415 46.1296C53.2162 46.5822 53.6556 47.0733 54.0317 47.5902C54.5075 48.2439 54.2136 48.8597 53.3248 48.9693C52.7656 49.0381 50.0341 48.9699 49.893 48.9693C49.1586 48.9665 48.5149 48.7448 47.9965 48.3107C47.42 47.8274 46.8961 47.2973 46.3425 46.7931C46.1757 46.6411 45.9977 46.4954 45.8057 46.3683C45.3528 46.0677 44.9084 46.1344 44.6968 46.5973C44.516 46.9948 44.3598 48.0388 44.3525 48.128C44.3145 48.5942 43.9736 48.8914 43.3735 48.9201C41.6411 49.002 39.9624 48.8339 38.3985 48.1046C37.073 47.4868 36.0145 46.6133 35.0977 45.5947C33.6412 43.9766 32.4908 42.1981 31.4405 40.3673C31.3868 40.2737 30.323 38.3035 30.2944 38.2104C30.1994 37.8988 30.288 37.6012 30.5905 37.4987C30.7791 37.4349 34.2865 37.4985 34.3448 37.5012C34.9045 37.5276 35.2861 37.7331 35.5219 38.2387Z" fill="#FF4848"/>
<circle cx="42.5" cy="42.5" r="41.5" stroke="#F0F0F0" stroke-width="2"/>
</svg>
