<svg width="85" height="85" viewBox="0 0 85 85" fill="none" xmlns="http://www.w3.org/2000/svg">
<path d="M19 66L22.3097 54.0734C20.1814 50.405 19.0608 46.231 19.0608 41.9432C19.0608 28.7409 29.6471 18 42.6595 18C55.6718 18 66.258 28.7409 66.258 41.9432C66.258 55.1455 55.6718 65.8864 42.6595 65.8864C38.6049 65.8864 34.6347 64.8334 31.1225 62.8339L19 66ZM31.7422 58.478L32.4646 58.9255C35.5268 60.8223 39.0522 61.8249 42.6595 61.8249C53.4645 61.8249 62.2549 52.906 62.2549 41.9432C62.2549 30.9805 53.4645 22.0616 42.6595 22.0616C31.8545 22.0616 23.0639 30.9805 23.0639 41.9432C23.0639 45.763 24.1339 49.4725 26.158 52.6704L26.6445 53.4389L24.7385 60.3072L31.7422 58.478Z" fill="#FF4848"/>
<path d="M36.0304 30.7995L34.4991 30.7148C34.0182 30.6882 33.5464 30.8512 33.1828 31.1716C32.4405 31.8257 31.2535 33.0902 30.8889 34.738C30.3452 37.1949 31.1854 40.2035 33.36 43.2121C35.5346 46.2206 39.5871 51.0343 46.7531 53.0902C49.0623 53.7527 50.8789 53.3061 52.2804 52.3965C53.3904 51.6761 54.1556 50.5197 54.4314 49.2125L54.6759 48.0539C54.7536 47.6857 54.5693 47.312 54.2321 47.1543L49.057 44.7341C48.721 44.5771 48.3226 44.6763 48.0967 44.9734L46.065 47.6456C45.9116 47.8475 45.6489 47.9275 45.4116 47.843C44.0203 47.3469 39.3598 45.3665 36.8026 40.3687C36.6916 40.1519 36.7192 39.8888 36.8765 39.7039L38.8182 37.4249C39.0166 37.1922 39.0667 36.8651 38.9475 36.5822L36.7167 31.287C36.5979 31.0051 36.3318 30.8162 36.0304 30.7995Z" fill="#FF4848"/>
<circle cx="42.5" cy="42.5" r="41.5" stroke="#F0F0F0" stroke-width="2"/>
</svg>
