<svg width="27" height="27" viewBox="0 0 27 27" fill="none" xmlns="http://www.w3.org/2000/svg">
<circle cx="13.2237" cy="13.2236" r="10.7971" transform="rotate(-15 13.2237 13.2236)" fill="#FF4848"/>
<rect x="7.76993" y="15.7422" width="11.8396" height="4.12733" rx="2.06367" transform="rotate(-15 7.76993 15.7422)" fill="white" stroke="black" stroke-width="0.5"/>
<path d="M7.80954 13.8758C7.17079 11.492 8.25268 10.5633 8.87347 10.397C9.49425 10.2306 10.8955 10.4939 11.5343 12.8777C10.2039 11.6374 9.27268 11.8869 9.27268 11.8869C9.27268 11.8869 8.3415 12.1364 7.80954 13.8758Z" fill="black"/>
<path d="M14.514 12.0794C13.8753 9.69556 14.9571 8.76693 15.5779 8.60059C16.1987 8.43425 17.6 8.69753 18.2387 11.0813C16.9083 9.84097 15.9771 10.0905 15.9771 10.0905C15.9771 10.0905 15.046 10.34 14.514 12.0794Z" fill="black"/>
<path d="M8.43506 17.7004L19.6092 14.7063" stroke="black" stroke-width="0.5"/>
<path d="M11.2883 14.9399L12.2863 18.6647" stroke="black" stroke-width="0.5"/>
<path d="M9.05341 15.5386L10.0514 19.2633" stroke="black" stroke-width="0.5"/>
<path d="M13.4233 13.9685L14.621 18.4382" stroke="black" stroke-width="0.5"/>
<path d="M15.6581 13.3696L16.8558 17.8393" stroke="black" stroke-width="0.5"/>
<path d="M17.9927 13.1433L18.9908 16.868" stroke="black" stroke-width="0.5"/>
</svg>
