<svg width="30" height="30" viewBox="0 0 30 30" fill="none" xmlns="http://www.w3.org/2000/svg">
<path d="M15 0C6.75586 0 0 6.75586 0 15C0 23.2441 6.75586 30 15 30C23.2441 30 30 23.2441 30 15C30 6.75586 23.2441 0 15 0Z" fill="#FFDA2D"/>
<path d="M30 15C30 23.2441 23.2441 30 15 30V0C23.2441 0 30 6.75586 30 15Z" fill="#FDBF00"/>
<path d="M15 3.51562C8.70697 3.51562 3.51562 8.70697 3.51562 15C3.51562 21.2929 8.70697 26.4844 15 26.4844C21.293 26.4844 26.4844 21.2929 26.4844 15C26.4844 8.70697 21.293 3.51562 15 3.51562Z" fill="#FDBF00"/>
<path d="M26.4844 15C26.4844 21.2929 21.293 26.4844 15 26.4844V3.51562C21.293 3.51562 26.4844 8.70697 26.4844 15Z" fill="#FF9100"/>
<path d="M18.5156 12.3633C18.2344 12.3633 17.8828 12.416 17.5137 12.4863C17.5839 12.1171 17.6367 11.7656 17.6367 11.4844C17.6367 10.0253 16.459 8.84766 15 8.84766C13.541 8.84766 12.3633 10.0253 12.3633 11.4844C12.3633 11.7656 12.4161 12.1172 12.4863 12.4863C12.1171 12.416 11.7656 12.3633 11.4844 12.3633C10.0253 12.3633 8.84766 13.541 8.84766 15C8.84766 16.4589 10.0253 17.6367 11.4844 17.6367C11.7656 17.6367 12.1172 17.5839 12.4863 17.5137C12.4161 17.8829 12.3633 18.2343 12.3633 18.5156C12.3633 19.9746 13.541 21.1523 15 21.1523C16.459 21.1523 17.6367 19.9746 17.6367 18.5156C17.6367 18.2343 17.5839 17.8828 17.5137 17.5137C17.8829 17.5839 18.2344 17.6367 18.5156 17.6367C19.9747 17.6367 21.1523 16.4589 21.1523 15C21.1523 13.541 19.9747 12.3633 18.5156 12.3633Z" fill="#FFDA2D"/>
<path d="M21.1523 15C21.1523 16.4589 19.9747 17.6367 18.5156 17.6367C18.2344 17.6367 17.8828 17.5839 17.5137 17.5137C17.5839 17.8829 17.6367 18.2343 17.6367 18.5156C17.6367 19.9746 16.459 21.1523 15 21.1523V8.84766C16.459 8.84766 17.6367 10.0253 17.6367 11.4844C17.6367 11.7656 17.5839 12.1172 17.5137 12.4863C17.8829 12.416 18.2344 12.3633 18.5156 12.3633C19.9747 12.3633 21.1523 13.541 21.1523 15Z" fill="#FDBF00"/>
</svg>
