<svg width="288" height="30" viewBox="0 0 288 30" fill="none" xmlns="http://www.w3.org/2000/svg">
<path d="M88.7162 12.1537C89.0897 11.7818 89.5303 11.4838 90.0145 11.2754C90.5132 11.0587 91.0517 10.9484 91.5955 10.9516H94.0119C94.0312 10.9544 94.0509 10.9527 94.0695 10.9465C94.088 10.9404 94.1048 10.93 94.1186 10.9162C94.1324 10.9024 94.1428 10.8856 94.1489 10.8671C94.1551 10.8485 94.1568 10.8288 94.154 10.8095C94.154 10.723 94.099 10.6756 93.989 10.6675H91.5939C91.0123 10.6644 90.4362 10.7808 89.9015 11.0096C89.3831 11.228 88.9121 11.545 88.5145 11.9429C88.1182 12.3445 87.8001 12.8164 87.5766 13.3345C87.3431 13.8722 87.2245 14.4529 87.2284 15.0391C87.2241 15.6235 87.3427 16.2022 87.5766 16.7377C87.8008 17.2504 88.1189 17.7167 88.5145 18.1124C88.9129 18.509 89.3837 18.8254 89.9015 19.0442C90.4362 19.2731 91.0123 19.3895 91.5939 19.3863H94.0593C94.0888 19.3768 94.1142 19.3576 94.1314 19.3318C94.1485 19.306 94.1565 19.2752 94.154 19.2443C94.154 19.1577 94.099 19.1104 93.989 19.1022H91.5939C91.0501 19.1055 90.5117 18.9952 90.013 18.7784C89.0394 18.3619 88.261 17.5901 87.8363 16.6201C87.6192 16.1236 87.5088 15.5871 87.5125 15.0452C87.5084 14.4974 87.6187 13.9548 87.8363 13.4521C88.045 12.9676 88.3436 12.5271 88.7162 12.1537ZM106.944 11.529C106.667 11.2544 106.34 11.037 105.979 10.8891C105.619 10.7413 105.233 10.666 104.843 10.6675H101.869V19.2748C101.866 19.2941 101.868 19.3138 101.874 19.3324C101.88 19.3509 101.891 19.3677 101.905 19.3815C101.918 19.3953 101.935 19.4057 101.954 19.4118C101.972 19.418 101.992 19.4197 102.011 19.4169C102.106 19.4169 102.153 19.3578 102.153 19.2397V16.5895H103.834L106.606 19.3497C106.624 19.3741 106.649 19.3922 106.677 19.4016C106.706 19.411 106.737 19.4112 106.766 19.402C106.794 19.3929 106.819 19.375 106.837 19.3508C106.855 19.3266 106.865 19.2973 106.866 19.2672C106.863 19.2437 106.856 19.2209 106.844 19.2006C106.831 19.1803 106.815 19.1629 106.795 19.1496L104.235 16.5895H104.846C105.432 16.588 106.004 16.4133 106.491 16.0875C106.977 15.7617 107.357 15.2992 107.581 14.7584C107.805 14.2175 107.865 13.6224 107.752 13.0477C107.639 12.4731 107.359 11.9447 106.947 11.529H106.944ZM107.298 14.6664C107.161 14.9823 106.967 15.2701 106.725 15.5157C106.482 15.7614 106.194 15.9575 105.876 16.0931C105.55 16.2345 105.198 16.3068 104.843 16.3054H102.153V10.9501H104.843C105.198 10.9487 105.55 11.021 105.876 11.1624C106.194 11.2981 106.482 11.4942 106.725 11.7398C106.967 11.9869 107.162 12.277 107.298 12.5952C107.438 12.9222 107.51 13.2743 107.51 13.63C107.51 13.9858 107.438 14.3379 107.298 14.6649V14.6664ZM115.812 10.9501H120.547C120.567 10.9529 120.586 10.9512 120.605 10.945C120.623 10.9389 120.64 10.9285 120.654 10.9147C120.668 10.9009 120.678 10.8841 120.684 10.8655C120.69 10.847 120.692 10.8273 120.689 10.808C120.689 10.7133 120.63 10.666 120.512 10.666H115.519V19.3955H120.56C120.579 19.3983 120.599 19.3966 120.617 19.3905C120.636 19.3843 120.652 19.3739 120.666 19.3601C120.68 19.3463 120.69 19.3295 120.697 19.311C120.703 19.2925 120.704 19.2728 120.702 19.2534C120.702 19.1587 120.647 19.1114 120.537 19.1114H115.801V15.1033H116.675C116.694 15.1061 116.714 15.1044 116.733 15.0982C116.751 15.0921 116.768 15.0817 116.782 15.0679C116.796 15.0541 116.806 15.0373 116.812 15.0188C116.818 15.0002 116.82 14.9805 116.817 14.9612C116.817 14.8665 116.758 14.8192 116.64 14.8192H115.803C115.803 14.1512 115.803 13.506 115.803 12.8839C115.803 12.2617 115.806 11.6171 115.812 10.9501ZM128.305 19.397H132.706C132.725 19.3999 132.745 19.3981 132.764 19.392C132.782 19.3858 132.799 19.3755 132.813 19.3617C132.827 19.3479 132.837 19.331 132.843 19.3125C132.849 19.294 132.851 19.2743 132.848 19.255C132.848 19.1603 132.793 19.1129 132.683 19.1129H128.779L132.825 11.2433L136.907 19.339C136.921 19.3597 136.94 19.3762 136.963 19.3867C136.986 19.3972 137.011 19.4013 137.036 19.3986C137.131 19.3986 137.179 19.3553 137.179 19.2687V19.2092L132.825 10.6094L128.305 19.397ZM151.806 10.6675H145.07C144.983 10.6675 144.94 10.7148 144.94 10.8095C144.94 10.9042 144.979 10.9516 145.057 10.9516H148.396V19.2565C148.394 19.2758 148.395 19.2955 148.401 19.314C148.408 19.3326 148.418 19.3494 148.432 19.3632C148.446 19.377 148.462 19.3874 148.481 19.3935C148.499 19.3997 148.519 19.4014 148.538 19.3986C148.633 19.3986 148.68 19.3436 148.68 19.2336V10.9501H151.795C151.814 10.9529 151.834 10.9512 151.853 10.945C151.871 10.9389 151.888 10.9285 151.902 10.9147C151.915 10.9009 151.926 10.8841 151.932 10.8655C151.938 10.847 151.94 10.8273 151.937 10.808C151.938 10.7713 151.925 10.7355 151.902 10.7072C151.89 10.6941 151.876 10.6838 151.86 10.6769C151.844 10.6701 151.826 10.6669 151.809 10.6675H151.806ZM159.758 10.6675C159.663 10.6675 159.616 10.7108 159.616 10.7973V19.2565C159.615 19.2932 159.627 19.329 159.651 19.3573C159.664 19.3718 159.681 19.3831 159.7 19.3902C159.718 19.3974 159.738 19.4002 159.758 19.3986C159.776 19.3988 159.795 19.3952 159.812 19.3882C159.83 19.3811 159.845 19.3706 159.859 19.3574C159.872 19.3442 159.882 19.3284 159.889 19.3111C159.896 19.2938 159.9 19.2752 159.9 19.2565V10.7851C159.896 10.751 159.88 10.7197 159.853 10.6977C159.827 10.6758 159.793 10.6649 159.759 10.6675H159.758ZM176.157 10.6675C176.128 10.6663 176.099 10.6734 176.074 10.688C176.049 10.7026 176.028 10.7241 176.015 10.75C175.322 12.1339 174.632 13.4984 173.945 14.8436C173.258 16.1888 172.566 17.5498 171.871 18.9266L167.789 10.7622C167.781 10.7341 167.764 10.7095 167.741 10.6923C167.717 10.6752 167.689 10.6664 167.659 10.6675C167.64 10.6647 167.62 10.6664 167.602 10.6725C167.583 10.6787 167.567 10.689 167.553 10.7028C167.539 10.7166 167.529 10.7335 167.522 10.752C167.516 10.7705 167.515 10.7902 167.517 10.8095C167.515 10.8427 167.523 10.8757 167.54 10.9042L171.871 19.5803L176.284 10.8966L176.3 10.8737C176.304 10.854 176.304 10.8338 176.3 10.8141C176.304 10.7945 176.303 10.7742 176.297 10.7551C176.291 10.736 176.281 10.7185 176.267 10.7042C176.253 10.6898 176.236 10.679 176.217 10.6726C176.198 10.6662 176.178 10.6645 176.158 10.6675H176.157ZM184.379 10.9501H189.114C189.134 10.9529 189.153 10.9512 189.172 10.945C189.19 10.9389 189.207 10.9285 189.221 10.9147C189.235 10.9009 189.245 10.8841 189.251 10.8655C189.258 10.847 189.259 10.8273 189.256 10.808C189.256 10.7133 189.197 10.666 189.079 10.666H184.091V19.3955H189.131C189.151 19.3983 189.17 19.3966 189.189 19.3905C189.207 19.3843 189.224 19.3739 189.238 19.3601C189.252 19.3463 189.262 19.3295 189.268 19.311C189.274 19.2925 189.276 19.2728 189.273 19.2534C189.273 19.1587 189.218 19.1114 189.108 19.1114H184.373V15.1033H185.247C185.266 15.1061 185.286 15.1044 185.304 15.0982C185.323 15.0921 185.34 15.0817 185.354 15.0679C185.367 15.0541 185.378 15.0373 185.384 15.0188C185.39 15.0002 185.392 14.9805 185.389 14.9612C185.389 14.8665 185.33 14.8192 185.212 14.8192H184.375C184.375 14.1512 184.375 13.506 184.375 12.8839C184.375 12.2617 184.377 11.6171 184.381 10.9501H184.379ZM206.098 19.397H210.501C210.52 19.3999 210.54 19.3981 210.558 19.392C210.577 19.3858 210.594 19.3755 210.607 19.3617C210.621 19.3479 210.632 19.331 210.638 19.3125C210.644 19.294 210.646 19.2743 210.643 19.255C210.643 19.1603 210.588 19.1129 210.478 19.1129H206.572L210.618 11.2433L214.7 19.339C214.714 19.3597 214.734 19.3762 214.756 19.3867C214.779 19.3972 214.805 19.4013 214.83 19.3986C214.924 19.3986 214.972 19.3553 214.972 19.2687V19.2092L210.618 10.6094L206.098 19.397ZM227.405 13.64C227.405 13.7347 227.464 13.782 227.583 13.782H229.506V19.1221H227.123C226.579 19.1254 226.04 19.0151 225.542 18.7983C224.566 18.3788 223.787 17.6024 223.365 16.6277C223.147 16.1289 223.037 15.5897 223.041 15.0452C223.037 14.4974 223.147 13.9548 223.365 13.4521C223.785 12.4741 224.564 11.6949 225.542 11.2754C226.041 11.0587 226.579 10.9484 227.123 10.9516H227.471C227.49 10.9544 227.51 10.9527 227.529 10.9465C227.547 10.9404 227.564 10.93 227.578 10.9162C227.591 10.9024 227.602 10.8856 227.608 10.8671C227.614 10.8485 227.616 10.8288 227.613 10.8095C227.613 10.7148 227.554 10.6675 227.436 10.6675H227.13C226.545 10.6636 225.965 10.7801 225.426 11.0096C224.907 11.2294 224.436 11.5479 224.039 11.9475C223.643 12.3483 223.327 12.8205 223.107 13.339C222.877 13.8778 222.761 14.4581 222.765 15.0437C222.76 15.6274 222.877 16.2058 223.107 16.7423C223.55 17.7852 224.382 18.6146 225.426 19.0549C225.965 19.2844 226.545 19.4009 227.13 19.397H229.808V13.4994H227.524C227.49 13.5029 227.459 13.5196 227.437 13.5458C227.415 13.572 227.404 13.6058 227.407 13.64H227.405ZM237.835 10.9501H242.57C242.589 10.9529 242.609 10.9512 242.628 10.945C242.646 10.9389 242.663 10.9285 242.677 10.9147C242.691 10.9009 242.701 10.8841 242.707 10.8655C242.713 10.847 242.715 10.8273 242.712 10.808C242.712 10.7133 242.653 10.666 242.535 10.666H237.54V19.3955H242.581C242.6 19.3983 242.62 19.3966 242.638 19.3905C242.657 19.3843 242.674 19.3739 242.688 19.3601C242.701 19.3463 242.712 19.3295 242.718 19.311C242.724 19.2925 242.726 19.2728 242.723 19.2534C242.723 19.1587 242.668 19.1114 242.558 19.1114H237.823V15.1033H238.696C238.716 15.1061 238.735 15.1044 238.754 15.0982C238.773 15.0921 238.789 15.0817 238.803 15.0679C238.817 15.0541 238.827 15.0373 238.833 15.0188C238.84 15.0002 238.841 14.9805 238.839 14.9612C238.839 14.8665 238.779 14.8192 238.661 14.8192H237.824C237.824 14.1512 237.824 13.506 237.824 12.8839C237.824 12.2617 237.828 11.6171 237.835 10.9501ZM257.654 10.6553C257.559 10.6553 257.512 10.7103 257.512 10.8202V18.7249L250.398 10.6079V19.2748C250.396 19.2941 250.397 19.3138 250.404 19.3324C250.41 19.3509 250.42 19.3677 250.434 19.3815C250.448 19.3953 250.464 19.4057 250.483 19.4118C250.502 19.418 250.521 19.4197 250.541 19.4169C250.627 19.4169 250.674 19.3619 250.683 19.2519V11.3991L257.796 19.5162V10.7973C257.799 10.7782 257.797 10.7586 257.791 10.7402C257.785 10.7218 257.775 10.7051 257.761 10.6913C257.748 10.6776 257.731 10.6671 257.713 10.6609C257.694 10.6546 257.675 10.6527 257.656 10.6553H257.654ZM267.045 12.1537C267.419 11.7818 267.859 11.4838 268.343 11.2754C268.842 11.0587 269.381 10.9484 269.924 10.9516H272.342C272.362 10.9544 272.381 10.9527 272.4 10.9465C272.418 10.9404 272.435 10.93 272.449 10.9162C272.463 10.9024 272.473 10.8856 272.479 10.8671C272.485 10.8485 272.487 10.8288 272.484 10.8095C272.484 10.723 272.429 10.6756 272.319 10.6675H269.924C269.343 10.6644 268.767 10.7808 268.232 11.0096C267.713 11.2294 267.242 11.5479 266.845 11.9475C266.449 12.3491 266.13 12.821 265.907 13.339C265.673 13.8768 265.555 14.4574 265.559 15.0437C265.554 15.6281 265.673 16.2068 265.907 16.7423C266.131 17.255 266.449 17.7213 266.845 18.117C267.243 18.5136 267.714 18.8299 268.232 19.0488C268.767 19.2777 269.343 19.3941 269.924 19.3909H272.39C272.419 19.3814 272.445 19.3622 272.462 19.3364C272.479 19.3106 272.487 19.2798 272.484 19.2489C272.484 19.1623 272.429 19.115 272.319 19.1068H269.924C269.381 19.1101 268.842 18.9998 268.343 18.783C267.368 18.3636 266.589 17.5871 266.167 16.6124C265.95 16.116 265.839 15.5794 265.843 15.0376C265.839 14.4898 265.949 13.9472 266.167 13.4444C266.376 12.9627 266.675 12.5248 267.047 12.1537H267.045ZM286.581 10.6675C286.568 10.6653 286.554 10.6653 286.54 10.6675C286.52 10.6776 286.502 10.6916 286.487 10.7087C285.991 11.4012 285.493 12.0814 284.994 12.7494C284.495 13.4175 283.998 14.0977 283.502 14.7902C283.124 14.281 282.79 13.8329 282.499 13.446L281.735 12.4378C281.518 12.1507 281.337 11.9088 281.193 11.7123C281.048 11.5157 280.928 11.3508 280.832 11.2174C280.612 10.919 280.486 10.7459 280.455 10.698C280.442 10.6861 280.427 10.6768 280.411 10.6708C280.395 10.6647 280.377 10.662 280.36 10.6629C280.258 10.6629 280.207 10.7102 280.207 10.805C280.206 10.8223 280.209 10.8397 280.215 10.856C280.221 10.8722 280.23 10.8871 280.242 10.8997L283.357 15.088V19.2519C283.357 19.3466 283.408 19.394 283.51 19.394C283.596 19.394 283.64 19.339 283.64 19.229V15.0911L286.707 10.9271C286.723 10.9121 286.735 10.8938 286.743 10.8735C286.751 10.8532 286.755 10.8314 286.754 10.8095C286.758 10.7148 286.702 10.6675 286.585 10.6675H286.581Z" fill="#555555"/>
<path d="M258.021 20.1241L250.907 12.0071V19.2749C250.908 19.3241 250.9 19.3731 250.882 19.4189C250.864 19.4647 250.837 19.5065 250.802 19.5417C250.768 19.5768 250.726 19.6047 250.681 19.6237C250.636 19.6427 250.587 19.6524 250.537 19.6521C250.488 19.655 250.438 19.6474 250.392 19.6298C250.346 19.6121 250.304 19.5849 250.269 19.5498C250.234 19.5148 250.206 19.4727 250.189 19.4264C250.171 19.38 250.163 19.3305 250.166 19.281V10L257.28 18.117V10.8218C257.275 10.7708 257.282 10.7195 257.298 10.6712C257.315 10.6228 257.342 10.5786 257.377 10.5413C257.412 10.5041 257.454 10.4747 257.502 10.4551C257.549 10.4356 257.6 10.4262 257.651 10.4277C257.7 10.4248 257.75 10.4324 257.796 10.4501C257.843 10.4677 257.885 10.4949 257.92 10.53C257.955 10.5651 257.982 10.6071 258 10.6535C258.017 10.6998 258.025 10.7494 258.022 10.7989L258.021 20.1241ZM171.857 20.0951L167.334 11.0158C167.298 10.953 167.28 10.8817 167.282 10.8096C167.279 10.7601 167.287 10.7105 167.304 10.6642C167.322 10.6178 167.349 10.5757 167.384 10.5407C167.419 10.5056 167.462 10.4784 167.508 10.4608C167.554 10.4431 167.604 10.4355 167.653 10.4384C167.727 10.4374 167.799 10.459 167.859 10.5002C167.92 10.5415 167.966 10.6004 167.992 10.669L171.871 18.4164C172.501 17.1781 173.126 15.9521 173.746 14.7382C174.437 13.3895 175.133 12.0132 175.816 10.6461C175.849 10.5827 175.899 10.5296 175.96 10.4927C176.021 10.4557 176.091 10.4364 176.163 10.4369C176.212 10.434 176.262 10.4416 176.308 10.4592C176.355 10.4769 176.397 10.5041 176.432 10.5392C176.467 10.5742 176.494 10.6163 176.512 10.6626C176.529 10.709 176.537 10.7585 176.534 10.808C176.537 10.8637 176.527 10.9193 176.504 10.9699L176.487 11.0051L171.857 20.0951ZM102.011 19.6506C101.961 19.6536 101.911 19.6458 101.865 19.6279C101.818 19.61 101.776 19.5824 101.741 19.5468C101.706 19.5112 101.678 19.4686 101.661 19.4217C101.644 19.3748 101.637 19.3247 101.64 19.2749V10.4384H104.848C105.694 10.4368 106.506 10.7708 107.105 11.3671C107.554 11.8135 107.859 12.383 107.983 13.0032C108.107 13.6235 108.043 14.2666 107.801 14.8508C107.558 15.435 107.148 15.934 106.621 16.2843C106.095 16.6347 105.476 16.8207 104.843 16.8187H104.784L106.947 18.9816C106.99 19.0156 107.026 19.0589 107.05 19.1083C107.075 19.1577 107.089 19.212 107.09 19.2672C107.093 19.3167 107.085 19.3663 107.068 19.4126C107.05 19.4589 107.023 19.501 106.988 19.5361C106.953 19.5712 106.911 19.5984 106.864 19.616C106.818 19.6337 106.769 19.6413 106.719 19.6384C106.662 19.6401 106.606 19.6282 106.555 19.6038C106.503 19.5793 106.459 19.543 106.424 19.4979L103.734 16.8187H102.383V19.2443C102.388 19.296 102.382 19.3483 102.366 19.3977C102.35 19.4471 102.323 19.4924 102.288 19.5308C102.253 19.5692 102.21 19.5997 102.163 19.6204C102.115 19.641 102.063 19.6513 102.011 19.6506ZM102.383 16.0778H104.843C105.167 16.0786 105.487 16.0126 105.784 15.8839C106.075 15.7595 106.339 15.58 106.562 15.3553C106.783 15.1293 106.961 14.8648 107.087 14.5748C107.215 14.2765 107.281 13.9553 107.281 13.6308C107.281 13.3063 107.215 12.9852 107.087 12.6868C106.962 12.395 106.784 12.1288 106.562 11.9017C106.339 11.6771 106.075 11.4976 105.784 11.3732C105.487 11.2445 105.167 11.1784 104.843 11.1792H102.383V16.0778ZM283.516 19.6262C283.466 19.6299 283.415 19.6229 283.368 19.6058C283.321 19.5886 283.277 19.5615 283.241 19.5265C283.205 19.4914 283.177 19.4491 283.159 19.4023C283.14 19.3555 283.132 19.3053 283.134 19.255V15.1675L280.079 11.0433C280.018 10.9691 279.988 10.8746 279.995 10.779C280.002 10.6835 280.045 10.5941 280.115 10.5291C280.185 10.4642 280.278 10.4286 280.374 10.4296C280.47 10.4306 280.561 10.4682 280.63 10.5346L280.659 10.5697C280.676 10.5942 280.746 10.695 281.031 11.0799C281.127 11.2159 281.246 11.3854 281.39 11.5748C281.533 11.7642 281.715 12.0132 281.93 12.2989L282.694 13.307C282.936 13.6278 283.209 13.9923 283.511 14.4007C283.951 13.7897 284.391 13.1894 284.823 12.612C285.323 11.9445 285.824 11.2586 286.313 10.5743L286.337 10.5453C286.369 10.5084 286.408 10.479 286.452 10.4592C286.497 10.4394 286.545 10.4297 286.594 10.4307C286.645 10.4253 286.698 10.431 286.747 10.4472C286.796 10.4635 286.842 10.49 286.88 10.5251C286.919 10.5602 286.949 10.603 286.97 10.6507C286.99 10.6984 287.001 10.7499 287 10.8019C287.001 10.8994 286.966 10.9937 286.901 11.0662L283.885 15.1583V19.2245C283.892 19.276 283.887 19.3284 283.871 19.3779C283.855 19.4274 283.829 19.4728 283.794 19.5111C283.759 19.5493 283.716 19.5794 283.668 19.5993C283.619 19.6192 283.568 19.6284 283.516 19.6262ZM272.432 19.6262H269.926C269.313 19.6291 268.706 19.5065 268.142 19.2657C267.598 19.0347 267.103 18.7018 266.684 18.2851C266.269 17.8674 265.935 17.3758 265.699 16.8355C265.457 16.2685 265.332 15.6582 265.332 15.0414C265.332 14.4247 265.457 13.8144 265.699 13.2474C265.934 12.7034 266.268 12.2077 266.684 11.7856C267.102 11.3655 267.598 11.0304 268.143 10.7989C268.707 10.5582 269.314 10.4355 269.927 10.4384H272.339C272.388 10.4372 272.437 10.4458 272.483 10.4639C272.529 10.4819 272.571 10.509 272.606 10.5434C272.641 10.5779 272.669 10.6191 272.688 10.6645C272.707 10.71 272.717 10.7588 272.716 10.808C272.719 10.8575 272.712 10.9071 272.694 10.9534C272.676 10.9998 272.649 11.0418 272.614 11.0769C272.579 11.112 272.537 11.1392 272.491 11.1568C272.444 11.1745 272.395 11.1821 272.345 11.1792H269.927C269.415 11.1768 268.908 11.2808 268.438 11.4847C267.982 11.6828 267.568 11.9647 267.216 12.3157C266.865 12.6674 266.583 13.0819 266.385 13.5376C266.18 14.0116 266.076 14.5229 266.08 15.0392C266.077 15.5495 266.181 16.0547 266.385 16.5223C266.784 17.4444 267.521 18.1789 268.444 18.5753C268.914 18.7792 269.421 18.8832 269.933 18.8808H272.345C272.433 18.8814 272.517 18.9125 272.584 18.9685C272.651 19.0246 272.696 19.1022 272.712 19.1881C272.728 19.2739 272.713 19.3626 272.671 19.4389C272.629 19.5152 272.561 19.5744 272.48 19.6063L272.432 19.6262ZM242.579 19.6262H237.311V10.4384H242.543C242.594 10.433 242.647 10.4386 242.696 10.4549C242.745 10.4711 242.791 10.4977 242.829 10.5327C242.868 10.5678 242.898 10.6106 242.919 10.6583C242.939 10.706 242.95 10.7576 242.949 10.8096C242.952 10.8591 242.944 10.9086 242.927 10.9549C242.909 11.0013 242.882 11.0434 242.847 11.0784C242.812 11.1135 242.77 11.1407 242.723 11.1584C242.677 11.176 242.627 11.1836 242.578 11.1807H238.064C238.064 11.7683 238.064 12.3376 238.064 12.8885C238.064 13.4394 238.064 14.0076 238.064 14.5931H238.675C238.727 14.5877 238.779 14.5933 238.828 14.6096C238.878 14.6259 238.923 14.6524 238.962 14.6875C239 14.7225 239.03 14.7653 239.051 14.8131C239.072 14.8608 239.082 14.9123 239.081 14.9643C239.084 15.0138 239.077 15.0634 239.059 15.1097C239.041 15.156 239.014 15.1981 238.979 15.2332C238.944 15.2682 238.902 15.2955 238.856 15.3131C238.809 15.3307 238.76 15.3384 238.71 15.3355H238.066V18.8884H242.567C242.618 18.8838 242.669 18.8901 242.718 18.9069C242.766 18.9236 242.81 18.9504 242.848 18.9855C242.885 19.0205 242.914 19.0631 242.934 19.1103C242.953 19.1576 242.963 19.2085 242.961 19.2596C242.964 19.3098 242.955 19.36 242.937 19.4067C242.918 19.4534 242.889 19.4955 242.853 19.5303C242.817 19.565 242.773 19.5916 242.726 19.6081C242.678 19.6247 242.628 19.6308 242.578 19.6262H242.579ZM230.031 19.6262H227.129C226.512 19.63 225.9 19.5073 225.333 19.2657C224.232 18.8034 223.355 17.9299 222.889 16.8309C222.65 16.2633 222.528 15.6539 222.528 15.0384C222.528 14.4229 222.65 13.8135 222.889 13.2459C223.12 12.7008 223.452 12.2044 223.868 11.7826C224.286 11.3624 224.781 11.0273 225.326 10.7958C225.894 10.5545 226.505 10.4319 227.121 10.4353H227.427C227.478 10.4299 227.531 10.4355 227.58 10.4518C227.629 10.4681 227.675 10.4946 227.713 10.5297C227.752 10.5647 227.782 10.6075 227.803 10.6553C227.823 10.703 227.834 10.7545 227.833 10.8065C227.836 10.8553 227.829 10.9042 227.812 10.9501C227.795 10.996 227.768 11.0378 227.734 11.0729C227.7 11.1079 227.659 11.1355 227.614 11.1538C227.569 11.1721 227.52 11.1808 227.471 11.1792H227.129C226.617 11.1768 226.109 11.2808 225.64 11.4847C224.714 11.8807 223.977 12.6174 223.58 13.5422C223.376 14.0161 223.272 14.5275 223.275 15.0437C223.272 15.554 223.376 16.0593 223.58 16.5269C223.979 17.4487 224.715 18.1832 225.638 18.5799C226.108 18.7838 226.615 18.8878 227.127 18.8854H229.281V14.0112H227.584C227.532 14.0166 227.48 14.0109 227.431 13.9947C227.381 13.9784 227.336 13.9519 227.298 13.9168C227.259 13.8818 227.229 13.839 227.208 13.7912C227.187 13.7435 227.177 13.692 227.178 13.64C227.175 13.552 227.204 13.4659 227.26 13.3982C227.317 13.3306 227.396 13.2861 227.483 13.2734H227.527H230.034L230.031 19.6262ZM214.831 19.6262C214.766 19.6299 214.702 19.616 214.644 19.5858C214.586 19.5557 214.538 19.5105 214.504 19.4551L214.497 19.4414L210.617 11.7505L206.951 18.8854H210.481C210.532 18.8808 210.583 18.8871 210.631 18.9038C210.68 18.9206 210.724 18.9473 210.761 18.9824C210.798 19.0175 210.828 19.06 210.847 19.1073C210.867 19.1545 210.876 19.2054 210.875 19.2565C210.878 19.306 210.87 19.3556 210.853 19.4019C210.835 19.4483 210.808 19.4903 210.773 19.5254C210.738 19.5605 210.695 19.5877 210.649 19.6053C210.603 19.623 210.553 19.6306 210.504 19.6277H205.724L210.612 10.1054L215.195 19.1557V19.2749C215.196 19.3223 215.187 19.3694 215.169 19.4132C215.15 19.4571 215.123 19.4967 215.089 19.5297C215.055 19.5627 215.015 19.5882 214.97 19.6048C214.926 19.6214 214.878 19.6287 214.831 19.6262ZM189.131 19.6262H183.857V10.4384H189.088C189.14 10.433 189.192 10.4386 189.242 10.4549C189.291 10.4711 189.337 10.4977 189.375 10.5327C189.413 10.5678 189.444 10.6106 189.465 10.6583C189.485 10.706 189.495 10.7576 189.495 10.8096C189.497 10.8583 189.49 10.907 189.472 10.9526C189.455 10.9982 189.429 11.0397 189.394 11.0745C189.36 11.1092 189.319 11.1365 189.274 11.1545C189.229 11.1726 189.18 11.181 189.131 11.1792H184.61C184.61 11.7668 184.61 12.336 184.61 12.8869C184.61 13.4378 184.61 14.0061 184.61 14.5916H185.221C185.273 14.5862 185.325 14.5918 185.374 14.6081C185.424 14.6243 185.469 14.6509 185.507 14.6859C185.546 14.721 185.576 14.7638 185.597 14.8115C185.618 14.8592 185.628 14.9108 185.627 14.9628C185.63 15.0123 185.622 15.0618 185.605 15.1082C185.587 15.1545 185.56 15.1966 185.525 15.2317C185.49 15.2667 185.448 15.294 185.401 15.3116C185.355 15.3292 185.305 15.3368 185.256 15.334H184.611V18.8869H189.101C189.152 18.8823 189.203 18.8886 189.251 18.9053C189.3 18.9221 189.344 18.9489 189.381 18.9839C189.418 19.019 189.448 19.0616 189.467 19.1088C189.487 19.1561 189.496 19.2069 189.495 19.2581C189.497 19.3066 189.489 19.3552 189.472 19.4006C189.455 19.446 189.428 19.4873 189.394 19.5219C189.36 19.5566 189.319 19.5837 189.273 19.6016C189.228 19.6196 189.18 19.6279 189.131 19.6262ZM159.767 19.6262C159.714 19.6283 159.661 19.6186 159.613 19.5977C159.564 19.5768 159.521 19.5453 159.486 19.5055C159.427 19.4361 159.395 19.3477 159.396 19.2565V10.7973C159.394 10.7486 159.402 10.7 159.42 10.6546C159.438 10.6093 159.466 10.5684 159.501 10.5344C159.536 10.5005 159.578 10.4744 159.623 10.4579C159.669 10.4413 159.718 10.4347 159.767 10.4384C159.855 10.4355 159.941 10.4651 160.008 10.5214C160.076 10.5777 160.12 10.6569 160.134 10.7439V10.7897V19.2611C160.134 19.3099 160.124 19.3583 160.106 19.4034C160.087 19.4485 160.06 19.4895 160.025 19.524C159.991 19.5585 159.95 19.5859 159.905 19.6044C159.859 19.623 159.811 19.6325 159.762 19.6323L159.767 19.6262ZM148.548 19.6262C148.498 19.6291 148.449 19.6214 148.402 19.6038C148.356 19.5862 148.314 19.5589 148.279 19.5239C148.244 19.4888 148.216 19.4467 148.199 19.4004C148.181 19.3541 148.174 19.3045 148.176 19.255V11.1792H145.06C145.012 11.1803 144.965 11.1712 144.921 11.1526C144.876 11.134 144.837 11.1062 144.804 11.0712C144.771 11.0362 144.746 10.9946 144.731 10.9493C144.715 10.9039 144.709 10.8558 144.714 10.808C144.71 10.7594 144.717 10.7105 144.733 10.6646C144.75 10.6187 144.776 10.5768 144.81 10.5418C144.844 10.5067 144.885 10.4792 144.93 10.4611C144.975 10.443 145.024 10.4348 145.073 10.4369H151.809C151.86 10.4361 151.91 10.4465 151.957 10.4674C152.003 10.4882 152.044 10.519 152.078 10.5575C152.136 10.627 152.168 10.7154 152.168 10.8065C152.171 10.856 152.163 10.9056 152.145 10.9519C152.128 10.9982 152.1 11.0403 152.065 11.0754C152.03 11.1104 151.988 11.1377 151.942 11.1553C151.896 11.1729 151.846 11.1806 151.797 11.1777H148.911V19.2306C148.916 19.2816 148.91 19.3331 148.893 19.3817C148.877 19.4302 148.85 19.4746 148.815 19.512C148.78 19.5494 148.737 19.5789 148.69 19.5986C148.642 19.6183 148.591 19.6277 148.54 19.6262H148.548ZM137.046 19.6262C136.981 19.6299 136.916 19.616 136.859 19.5858C136.801 19.5557 136.753 19.5105 136.719 19.4551L136.711 19.4414L132.831 11.7505L129.165 18.8854H132.695C132.746 18.8808 132.798 18.8871 132.846 18.9038C132.894 18.9206 132.939 18.9473 132.976 18.9824C133.013 19.0175 133.042 19.06 133.062 19.1073C133.082 19.1545 133.091 19.2054 133.089 19.2565C133.092 19.306 133.085 19.3556 133.067 19.4019C133.049 19.4483 133.022 19.4903 132.987 19.5254C132.952 19.5605 132.91 19.5877 132.864 19.6053C132.817 19.623 132.768 19.6306 132.718 19.6277H127.933L132.821 10.1054L137.403 19.1557V19.2749C137.404 19.3219 137.395 19.3686 137.377 19.4121C137.36 19.4556 137.333 19.4951 137.299 19.528C137.266 19.5609 137.226 19.5865 137.182 19.6034C137.138 19.6203 137.091 19.6281 137.044 19.6262H137.046ZM120.564 19.6262H115.29V10.4384H120.521C120.573 10.433 120.625 10.4386 120.675 10.4549C120.724 10.4711 120.769 10.4977 120.808 10.5327C120.846 10.5678 120.877 10.6106 120.897 10.6583C120.918 10.706 120.928 10.7576 120.928 10.8096C120.931 10.8591 120.923 10.9086 120.905 10.9549C120.888 11.0013 120.86 11.0434 120.825 11.0784C120.79 11.1135 120.748 11.1407 120.702 11.1584C120.656 11.176 120.606 11.1836 120.556 11.1807H116.043C116.043 11.7683 116.043 12.3376 116.043 12.8885C116.043 13.4394 116.043 14.0076 116.043 14.5931H116.654C116.705 14.5877 116.758 14.5933 116.807 14.6096C116.857 14.6259 116.902 14.6524 116.94 14.6875C116.979 14.7225 117.009 14.7653 117.03 14.8131C117.05 14.8608 117.061 14.9123 117.06 14.9643C117.063 15.0138 117.055 15.0634 117.038 15.1097C117.02 15.156 116.993 15.1981 116.958 15.2332C116.923 15.2682 116.881 15.2955 116.834 15.3131C116.788 15.3307 116.738 15.3384 116.689 15.3355H116.044V18.8884H120.546C120.597 18.8838 120.648 18.8901 120.696 18.9069C120.745 18.9236 120.789 18.9504 120.826 18.9855C120.863 19.0205 120.893 19.0631 120.912 19.1103C120.932 19.1576 120.941 19.2085 120.94 19.2596C120.942 19.3098 120.934 19.36 120.915 19.4067C120.897 19.4534 120.868 19.4955 120.832 19.5303C120.795 19.565 120.752 19.5916 120.705 19.6081C120.657 19.6247 120.607 19.6308 120.556 19.6262H120.564ZM94.1082 19.6262H91.5939C90.9808 19.6292 90.3736 19.5065 89.8098 19.2657C89.266 19.0347 88.7714 18.7018 88.3526 18.2851C87.9364 17.866 87.6022 17.3728 87.3674 16.8309C87.125 16.2638 87 15.6536 87 15.0369C87 14.4202 87.125 13.8099 87.3674 13.2428C87.6035 12.7021 87.9375 12.2096 88.3526 11.7902C88.7706 11.3702 89.266 11.0351 89.8113 10.8034C90.3752 10.5627 90.9824 10.44 91.5954 10.443H94.0058C94.055 10.4417 94.104 10.4504 94.1499 10.4685C94.1957 10.4865 94.2374 10.5136 94.2726 10.548C94.3078 10.5825 94.3357 10.6237 94.3547 10.6691C94.3737 10.7146 94.3833 10.7634 94.3831 10.8126C94.3853 10.8617 94.3772 10.9108 94.3593 10.9566C94.3413 11.0024 94.314 11.0439 94.279 11.0784C94.244 11.113 94.2022 11.1398 94.1562 11.1572C94.1102 11.1745 94.061 11.182 94.0119 11.1792H91.5939C91.0817 11.1768 90.5746 11.2809 90.1046 11.4847C89.6489 11.6828 89.2344 11.9647 88.8826 12.3157C88.5316 12.6674 88.2498 13.0819 88.0517 13.5376C87.8469 14.0116 87.7429 14.5229 87.7462 15.0392C87.7434 15.5495 87.8474 16.0547 88.0517 16.5223C88.4483 17.445 89.1828 18.1812 90.1046 18.5799C90.5745 18.7837 91.0817 18.8878 91.5939 18.8854H94.0058C94.0931 18.886 94.1775 18.917 94.2444 18.9731C94.3113 19.0292 94.3566 19.1068 94.3725 19.1926C94.3884 19.2785 94.3739 19.3672 94.3315 19.4435C94.2891 19.5198 94.2215 19.579 94.1402 19.6109L94.1082 19.6262Z" fill="#555555" stroke="#3A3A3A" stroke-width="0.5"/>
<path fill-rule="evenodd" clip-rule="evenodd" d="M32.4541 24.3021L46.5088 0H42.8384C40.3118 4.37592 35.902 12.007 32.3869 18.0928L31.1857 15.9784L40.4107 0H36.7403L29.3656 12.774L28.1617 10.655L34.3131 0H30.6427L26.3411 7.4506L25.1665 5.38338H10.4079C7.37113 5.38338 5.89608 5.53719 5.89608 5.53719C7.41163 3.25002 10.4079 3.2813 10.4079 3.2813H23.953L22.118 0.102541H10.6129C5.37312 0.102541 1.12795 4.34926 1.12795 9.58754C1.12795 14.8258 5.37312 19.1238 10.6129 19.1238H16.6628C16.9416 19.1238 17.2089 19.2345 17.406 19.4317C17.6031 19.6288 17.7139 19.8961 17.7139 20.1749C17.7139 20.4536 17.6031 20.7209 17.406 20.9181C17.2089 21.1152 16.9416 21.2259 16.6628 21.2259H4.85478L3.01931 24.4047H16.1624C16.7362 24.4021 20.9147 24.215 20.9147 19.3289C20.9147 19.3289 22.6579 19.5663 22.6579 21.7386C22.6579 21.7386 22.6579 26.4257 16.1604 26.4555H1.83548L0 29.6342H16.7141C18.6947 29.6228 20.6222 28.992 22.2264 27.8303C23.8306 26.6685 25.0311 25.034 25.6597 23.1557L29.3779 29.6342L31.2236 26.4555L20.9049 8.56214H23.3321L32.4541 24.3021ZM10.6129 8.56214H17.2345L18.5598 10.8555C17.9523 10.7318 17.3341 10.6678 16.7141 10.6642H10.6129C10.3342 10.6642 10.0669 10.5535 9.86975 10.3564C9.67264 10.1593 9.5619 9.89193 9.5619 9.61318C9.5619 9.33442 9.67264 9.06709 9.86975 8.86998C10.0669 8.67287 10.3342 8.56214 10.6129 8.56214ZM21.4822 16.0989C21.4822 16.0989 19.8929 15.9451 17.1243 15.9451H11.0616C4.21031 15.9163 4.76814 11.2282 4.76814 11.2282C4.76814 9.05587 6.51132 8.81849 6.51132 8.81849C6.51132 13.6661 10.435 13.8461 11.0462 13.843C11.0974 13.843 11.2661 13.843 11.422 13.843H17.1243C17.1243 13.843 19.7806 13.5902 21.4822 16.0989Z" fill="#3A3A3A"/>
<path fill-rule="evenodd" clip-rule="evenodd" d="M49.6896 0.153811L49.6296 0L32.2367 29.6342C32.5617 29.7562 41.5951 29.6342 41.5951 29.6342L46.4929 21.1505C48.1597 24.0376 49.8814 27.0338 51.3943 29.6542H67L49.6896 0.153811ZM48.3279 17.9723L49.5584 15.8446C50.9575 18.2702 52.4454 20.9101 53.8235 23.2972H57.494L49.5173 9.55678L39.7504 26.476C38.8475 26.476 38.0333 26.4729 37.3263 26.4708L49.5537 5.2875C49.9321 5.94376 59.3177 22.2416 61.7561 26.4755H53.2319L48.3279 17.9723Z" fill="#3A3A3A"/>
</svg>
