<svg width="122" height="45" viewBox="0 0 122 45" fill="none" xmlns="http://www.w3.org/2000/svg">
<path d="M2.02969 38.717C2.25384 38.4939 2.51815 38.3151 2.80871 38.1901C3.10794 38.06 3.43101 37.9938 3.75727 37.9958H5.20716C5.21874 37.9975 5.23056 37.9964 5.24168 37.9927C5.25279 37.9891 5.26289 37.9828 5.27117 37.9745C5.27945 37.9663 5.28568 37.9562 5.28936 37.945C5.29305 37.9339 5.29408 37.9221 5.29239 37.9105C5.29239 37.8586 5.2594 37.8302 5.19341 37.8253H3.75636C3.40738 37.8234 3.06174 37.8933 2.74089 38.0306C2.42986 38.1616 2.14723 38.3518 1.90871 38.5906C1.6709 38.8315 1.48007 39.1146 1.34599 39.4255C1.20587 39.7481 1.1347 40.0965 1.13703 40.4483C1.13445 40.7989 1.20565 41.1461 1.34599 41.4674C1.48048 41.7751 1.67134 42.0548 1.90871 42.2923C2.14771 42.5302 2.43023 42.72 2.74089 42.8513C3.06172 42.9886 3.40737 43.0585 3.75636 43.0566H5.23557C5.25326 43.0509 5.2685 43.0394 5.27881 43.0239C5.28913 43.0084 5.29391 42.9899 5.29239 42.9714C5.29239 42.9194 5.2594 42.891 5.19341 42.8861H3.75636C3.43009 42.8881 3.107 42.8219 2.80779 42.6918C2.22363 42.442 1.75662 41.9789 1.50179 41.3968C1.3715 41.099 1.3053 40.7771 1.3075 40.4519C1.30501 40.1233 1.37119 39.7977 1.50179 39.4961C1.62702 39.2054 1.80614 38.9411 2.02969 38.717ZM12.9661 38.3422C12.8004 38.1774 12.6038 38.047 12.3875 37.9583C12.1713 37.8696 11.9397 37.8244 11.706 37.8253H9.92157V42.9897C9.91988 43.0013 9.92092 43.0131 9.9246 43.0242C9.92829 43.0353 9.93452 43.0454 9.94279 43.0537C9.95107 43.062 9.96117 43.0682 9.97229 43.0719C9.9834 43.0756 9.99522 43.0766 10.0068 43.0749C10.0636 43.0749 10.092 43.0395 10.092 42.9686V41.3785H11.1002L12.7636 43.0346C12.7742 43.0492 12.7892 43.0601 12.8064 43.0658C12.8236 43.0714 12.8421 43.0715 12.8593 43.066C12.8766 43.0606 12.8917 43.0498 12.9024 43.0353C12.9132 43.0208 12.9192 43.0032 12.9194 42.9851C12.918 42.971 12.9134 42.9574 12.9062 42.9452C12.8989 42.933 12.889 42.9225 12.8772 42.9146L11.3412 41.3785H11.7078C12.0592 41.3776 12.4024 41.2728 12.6943 41.0773C12.9863 40.8818 13.2139 40.6043 13.3486 40.2798C13.4833 39.9553 13.519 39.5982 13.4513 39.2535C13.3836 38.9087 13.2154 38.5916 12.968 38.3422H12.9661ZM13.1788 40.2247C13.0964 40.4142 12.9799 40.5869 12.8351 40.7342C12.6893 40.8816 12.5162 40.9993 12.3255 41.0807C12.13 41.1655 11.9191 41.2089 11.706 41.2081H10.092V37.9948H11.706C11.9191 37.994 12.13 38.0374 12.3255 38.1222C12.5162 38.2037 12.6892 38.3213 12.8351 38.4687C12.9805 38.617 13.097 38.791 13.1788 38.9819C13.2628 39.1781 13.3061 39.3894 13.3061 39.6028C13.3061 39.8163 13.2628 40.0275 13.1788 40.2237V40.2247ZM18.2873 37.9948H21.1284C21.14 37.9965 21.1518 37.9955 21.1629 37.9918C21.174 37.9881 21.1841 37.9819 21.1924 37.9736C21.2007 37.9653 21.2069 37.9552 21.2106 37.9441C21.2143 37.933 21.2153 37.9212 21.2136 37.9096C21.2136 37.8528 21.1782 37.8244 21.1073 37.8244H18.1113V43.0621H21.1357C21.1473 43.0638 21.1591 43.0628 21.1702 43.0591C21.1814 43.0554 21.1915 43.0492 21.1997 43.0409C21.208 43.0326 21.2143 43.0225 21.2179 43.0114C21.2216 43.0003 21.2227 42.9885 21.221 42.9769C21.221 42.9201 21.188 42.8916 21.122 42.8916H18.2809V40.4868H18.8051C18.8167 40.4885 18.8285 40.4874 18.8396 40.4837C18.8507 40.4801 18.8608 40.4738 18.8691 40.4656C18.8774 40.4573 18.8836 40.4472 18.8873 40.4361C18.891 40.4249 18.892 40.4131 18.8903 40.4015C18.8903 40.3447 18.8549 40.3163 18.784 40.3163H18.2818C18.2818 39.9155 18.2818 39.5284 18.2818 39.1551C18.2818 38.7818 18.2836 38.395 18.2873 37.9948ZM25.7832 43.063H28.4236C28.4352 43.0647 28.4471 43.0637 28.4582 43.06C28.4693 43.0563 28.4794 43.0501 28.4877 43.0418C28.4959 43.0335 28.5022 43.0234 28.5059 43.0123C28.5095 43.0012 28.5106 42.9894 28.5089 42.9778C28.5089 42.921 28.4759 42.8926 28.4099 42.8926H26.0674L28.4951 38.1708L30.944 43.0282C30.9525 43.0406 30.9643 43.0505 30.978 43.0568C30.9917 43.0631 31.0069 43.0656 31.0219 43.0639C31.0787 43.0639 31.1071 43.038 31.1071 42.986V42.9503L28.4951 37.7905L25.7832 43.063ZM39.8834 37.8253H35.8417C35.7898 37.8253 35.7638 37.8537 35.7638 37.9105C35.7638 37.9674 35.7873 37.9958 35.8344 37.9958H37.8378V42.9787C37.8361 42.9903 37.8372 43.0021 37.8408 43.0132C37.8445 43.0243 37.8508 43.0344 37.859 43.0427C37.8673 43.051 37.8774 43.0572 37.8885 43.0609C37.8996 43.0646 37.9115 43.0656 37.923 43.0639C37.9799 43.0639 38.0083 43.0309 38.0083 42.965V37.9948H39.877C39.8886 37.9965 39.9004 37.9955 39.9115 37.9918C39.9226 37.9881 39.9327 37.9819 39.941 37.9736C39.9493 37.9653 39.9555 37.9552 39.9592 37.9441C39.9629 37.933 39.9639 37.9212 39.9622 37.9096C39.9627 37.8876 39.9552 37.8661 39.9412 37.8491C39.9342 37.8413 39.9255 37.8351 39.9159 37.831C39.9062 37.8269 39.8957 37.8249 39.8853 37.8253H39.8834ZM44.6547 37.8253C44.5978 37.8253 44.5694 37.8513 44.5694 37.9032V42.9787C44.5689 43.0008 44.5764 43.0222 44.5905 43.0392C44.5986 43.0479 44.6086 43.0546 44.6197 43.0589C44.6309 43.0632 44.6428 43.0649 44.6547 43.0639C44.6659 43.0641 44.677 43.0619 44.6874 43.0577C44.6978 43.0535 44.7073 43.0472 44.7152 43.0393C44.7231 43.0313 44.7294 43.0219 44.7337 43.0115C44.7379 43.0011 44.74 42.9899 44.7399 42.9787V37.8959C44.7378 37.8754 44.7278 37.8566 44.7121 37.8434C44.6963 37.8303 44.6761 37.8238 44.6556 37.8253H44.6547ZM54.4941 37.8253C54.4766 37.8246 54.4593 37.8288 54.4442 37.8376C54.4291 37.8464 54.4169 37.8593 54.4088 37.8748C53.9934 38.7051 53.5794 39.5239 53.167 40.331C52.7546 41.1381 52.3397 41.9547 51.9224 42.7807L49.4736 37.8821C49.4688 37.8653 49.4586 37.8505 49.4445 37.8402C49.4303 37.8299 49.4131 37.8246 49.3957 37.8253C49.3841 37.8236 49.3722 37.8246 49.3611 37.8283C49.35 37.832 49.3399 37.8382 49.3316 37.8465C49.3234 37.8548 49.3171 37.8649 49.3134 37.876C49.3098 37.8871 49.3087 37.8989 49.3104 37.9105C49.3092 37.9304 49.314 37.9502 49.3242 37.9673L51.9224 43.173L54.5702 37.9628L54.5802 37.949C54.5823 37.9372 54.5823 37.9251 54.5802 37.9133C54.5824 37.9015 54.5817 37.8893 54.5783 37.8779C54.5748 37.8664 54.5687 37.8559 54.5603 37.8473C54.552 37.8387 54.5417 37.8322 54.5303 37.8284C54.519 37.8245 54.5069 37.8235 54.495 37.8253H54.4941ZM59.4275 37.9948H62.2687C62.2802 37.9965 62.2921 37.9955 62.3032 37.9918C62.3143 37.9881 62.3244 37.9819 62.3327 37.9736C62.3409 37.9653 62.3472 37.9552 62.3509 37.9441C62.3545 37.933 62.3556 37.9212 62.3539 37.9096C62.3539 37.8528 62.3184 37.8244 62.2476 37.8244H59.2543V43.0621H62.2787C62.2903 43.0638 62.3021 43.0628 62.3133 43.0591C62.3244 43.0554 62.3345 43.0492 62.3427 43.0409C62.351 43.0326 62.3573 43.0225 62.3609 43.0114C62.3646 43.0003 62.3657 42.9885 62.364 42.9769C62.364 42.9201 62.331 42.8916 62.265 42.8916H59.4239V40.4868H59.9481C59.9597 40.4885 59.9715 40.4874 59.9826 40.4837C59.9937 40.4801 60.0038 40.4738 60.0121 40.4656C60.0204 40.4573 60.0266 40.4472 60.0303 40.4361C60.034 40.4249 60.035 40.4131 60.0333 40.4015C60.0333 40.3447 59.9979 40.3163 59.927 40.3163H59.4248C59.4248 39.9155 59.4248 39.5284 59.4248 39.1551C59.4248 38.7818 59.426 38.395 59.4285 37.9948H59.4275ZM72.4591 43.063H75.1004C75.112 43.0647 75.1238 43.0637 75.1349 43.06C75.146 43.0563 75.1561 43.0501 75.1644 43.0418C75.1727 43.0335 75.1789 43.0234 75.1826 43.0123C75.1863 43.0012 75.1873 42.9894 75.1856 42.9778C75.1856 42.921 75.1526 42.8926 75.0867 42.8926H72.7432L75.171 38.1708L77.6198 43.0282C77.6284 43.0406 77.6401 43.0505 77.6538 43.0568C77.6676 43.0631 77.6827 43.0656 77.6977 43.0639C77.7546 43.0639 77.783 43.038 77.783 42.986V42.9503L75.171 37.7905L72.4591 43.063ZM85.2432 39.6088C85.2432 39.6656 85.2786 39.694 85.3495 39.694H86.5034V42.8981H85.0736C84.7474 42.9 84.4243 42.8339 84.1251 42.7038C83.5396 42.4521 83.0724 41.9862 82.8191 41.4014C82.6882 41.1022 82.6219 40.7786 82.6248 40.4519C82.6223 40.1233 82.6885 39.7977 82.8191 39.4961C83.0707 38.9093 83.5383 38.4417 84.1251 38.1901C84.4243 38.06 84.7474 37.9938 85.0736 37.9958H85.2826C85.2942 37.9975 85.306 37.9964 85.3171 37.9927C85.3282 37.9891 85.3383 37.9828 85.3466 37.9745C85.3549 37.9663 85.3611 37.9562 85.3648 37.945C85.3685 37.9339 85.3695 37.9221 85.3678 37.9105C85.3678 37.8537 85.3324 37.8253 85.2615 37.8253H85.0782C84.7268 37.823 84.3787 37.8928 84.0554 38.0306C83.7442 38.1624 83.4615 38.3536 83.2233 38.5933C82.9858 38.8338 82.7961 39.1171 82.6642 39.4282C82.5265 39.7515 82.4566 40.0996 82.4589 40.451C82.4562 40.8013 82.5261 41.1483 82.6642 41.4702C82.93 42.0959 83.429 42.5936 84.0554 42.8577C84.3787 42.9955 84.7268 43.0653 85.0782 43.063H86.6848V39.5245H85.3147C85.2942 39.5266 85.2754 39.5365 85.2623 39.5523C85.2491 39.568 85.2426 39.5883 85.2441 39.6088H85.2432ZM91.501 37.9948H94.3421C94.3537 37.9965 94.3655 37.9955 94.3766 37.9918C94.3877 37.9881 94.3978 37.9819 94.4061 37.9736C94.4144 37.9653 94.4206 37.9552 94.4243 37.9441C94.428 37.933 94.429 37.9212 94.4273 37.9096C94.4273 37.8528 94.3919 37.8244 94.321 37.8244H91.3241V43.0621H94.3485C94.3601 43.0638 94.3719 43.0628 94.383 43.0591C94.3941 43.0554 94.4042 43.0492 94.4125 43.0409C94.4208 43.0326 94.427 43.0225 94.4307 43.0114C94.4344 43.0003 94.4354 42.9885 94.4337 42.9769C94.4337 42.9201 94.4007 42.8916 94.3348 42.8916H91.4936V40.4868H92.0179C92.0295 40.4885 92.0413 40.4874 92.0524 40.4837C92.0635 40.4801 92.0736 40.4738 92.0819 40.4656C92.0902 40.4573 92.0964 40.4472 92.1001 40.4361C92.1038 40.4249 92.1048 40.4131 92.1031 40.4015C92.1031 40.3447 92.0677 40.3163 91.9968 40.3163H91.4946C91.4946 39.9155 91.4946 39.5284 91.4946 39.1551C91.4946 38.7818 91.4967 38.395 91.501 37.9948ZM103.392 37.818C103.336 37.818 103.307 37.851 103.307 37.9169V42.6598L99.0391 37.7896V42.9897C99.0374 43.0013 99.0384 43.0131 99.0421 43.0242C99.0458 43.0353 99.052 43.0454 99.0603 43.0537C99.0686 43.062 99.0787 43.0682 99.0898 43.0719C99.1009 43.0756 99.1127 43.0766 99.1243 43.0749C99.1763 43.0749 99.2047 43.0419 99.2096 42.976V38.2643L103.478 43.1345V37.9032C103.479 37.8917 103.478 37.88 103.475 37.8689C103.471 37.8579 103.465 37.8479 103.457 37.8396C103.449 37.8313 103.439 37.8251 103.428 37.8213C103.417 37.8176 103.405 37.8164 103.393 37.818H103.392ZM109.027 38.717C109.251 38.4939 109.515 38.3151 109.806 38.1901C110.105 38.06 110.428 37.9938 110.755 37.9958H112.205C112.217 37.9975 112.229 37.9964 112.24 37.9927C112.251 37.9891 112.261 37.9828 112.269 37.9745C112.278 37.9663 112.284 37.9562 112.288 37.945C112.291 37.9339 112.292 37.9221 112.291 37.9105C112.291 37.8586 112.258 37.8302 112.192 37.8253H110.755C110.406 37.8234 110.06 37.8933 109.739 38.0306C109.428 38.1624 109.145 38.3536 108.907 38.5933C108.669 38.8342 108.478 39.1174 108.344 39.4282C108.204 39.7509 108.133 40.0993 108.135 40.451C108.133 40.8016 108.204 41.1489 108.344 41.4702C108.479 41.7778 108.67 42.0576 108.907 42.295C109.146 42.533 109.428 42.7228 109.739 42.8541C110.06 42.9914 110.406 43.0613 110.755 43.0594H112.234C112.251 43.0536 112.267 43.0421 112.277 43.0266C112.287 43.0112 112.292 42.9927 112.291 42.9741C112.291 42.9222 112.258 42.8938 112.192 42.8889H110.755C110.428 42.8909 110.105 42.8247 109.806 42.6946C109.22 42.4429 108.753 41.9771 108.5 41.3923C108.37 41.0944 108.304 40.7725 108.306 40.4474C108.303 40.1187 108.369 39.7931 108.5 39.4915C108.626 39.2024 108.805 38.9397 109.028 38.717H109.027ZM120.749 37.8253C120.741 37.824 120.732 37.824 120.724 37.8253C120.712 37.8314 120.701 37.8398 120.692 37.85C120.395 38.2655 120.096 38.6737 119.797 39.0745C119.497 39.4753 119.199 39.8834 118.901 40.2989C118.675 39.9934 118.474 39.7246 118.299 39.4924L117.841 38.8875C117.711 38.7152 117.602 38.5701 117.516 38.4522C117.429 38.3342 117.357 38.2353 117.299 38.1552C117.167 37.9762 117.092 37.8723 117.073 37.8436C117.065 37.8364 117.056 37.8309 117.047 37.8273C117.037 37.8236 117.026 37.822 117.016 37.8225C116.955 37.8225 116.924 37.851 116.924 37.9078C116.924 37.9182 116.925 37.9286 116.929 37.9384C116.933 37.9482 116.938 37.9571 116.945 37.9646L118.814 40.4776V42.976C118.814 43.0328 118.845 43.0612 118.906 43.0612C118.958 43.0612 118.984 43.0282 118.984 42.9622V40.4794L120.824 37.9811C120.834 37.9721 120.841 37.9611 120.846 37.9489C120.851 37.9367 120.853 37.9236 120.852 37.9105C120.855 37.8537 120.821 37.8253 120.751 37.8253H120.749Z" fill="#555555"/>
<path d="M103.612 43.4993L99.3443 38.6291V42.9897C99.345 43.0193 99.3398 43.0487 99.329 43.0762C99.3182 43.1036 99.3019 43.1287 99.2812 43.1498C99.2606 43.1709 99.2359 43.1877 99.2086 43.199C99.1813 43.2104 99.152 43.2162 99.1225 43.2161C99.0928 43.2178 99.0631 43.2133 99.0353 43.2027C99.0074 43.1921 98.9822 43.1757 98.9612 43.1547C98.9401 43.1337 98.9238 43.1084 98.9132 43.0806C98.9026 43.0528 98.898 43.0231 98.8998 42.9934V37.4248L103.168 42.295V37.9179C103.165 37.8873 103.169 37.8565 103.179 37.8275C103.189 37.7985 103.205 37.772 103.226 37.7496C103.247 37.7273 103.273 37.7096 103.301 37.6979C103.329 37.6861 103.36 37.6805 103.391 37.6814C103.42 37.6797 103.45 37.6843 103.478 37.6948C103.506 37.7054 103.531 37.7218 103.552 37.7428C103.573 37.7638 103.589 37.7891 103.6 37.8169C103.61 37.8447 103.615 37.8744 103.613 37.9041L103.612 43.4993ZM51.9142 43.4819L49.2004 38.0343C49.179 37.9966 49.1682 37.9539 49.1693 37.9105C49.1675 37.8808 49.1721 37.8511 49.1827 37.8233C49.1933 37.7955 49.2096 37.7703 49.2307 37.7492C49.2517 37.7282 49.2769 37.7118 49.3047 37.7013C49.3326 37.6907 49.3623 37.6861 49.392 37.6878C49.436 37.6872 49.4791 37.7002 49.5155 37.7249C49.5519 37.7497 49.5798 37.7851 49.5954 37.8262L51.9224 42.4747C52.3006 41.7317 52.6758 40.9961 53.0479 40.2677C53.4621 39.4585 53.88 38.6327 54.2897 37.8125C54.3094 37.7744 54.3393 37.7426 54.376 37.7204C54.4127 37.6982 54.4549 37.6867 54.4977 37.6869C54.5274 37.6852 54.5572 37.6898 54.585 37.7003C54.6128 37.7109 54.638 37.7273 54.6591 37.7483C54.6801 37.7693 54.6964 37.7946 54.707 37.8224C54.7176 37.8502 54.7222 37.8799 54.7204 37.9096C54.7223 37.943 54.716 37.9764 54.7021 38.0068L54.692 38.0279L51.9142 43.4819ZM10.0068 43.2152C9.97686 43.217 9.94688 43.2123 9.91887 43.2016C9.89086 43.1908 9.86547 43.1742 9.84439 43.1529C9.82331 43.1315 9.80702 43.1059 9.79662 43.0778C9.78623 43.0497 9.78196 43.0196 9.78409 42.9897V37.6878H11.7087C12.2162 37.6869 12.7034 37.8873 13.0633 38.2451C13.3322 38.5129 13.5154 38.8546 13.5896 39.2267C13.6639 39.5989 13.6259 39.9847 13.4805 40.3353C13.335 40.6858 13.0887 40.9852 12.7727 41.1954C12.4568 41.4056 12.0855 41.5172 11.706 41.516H11.6702L12.968 42.8138C12.9941 42.8342 13.0154 42.8601 13.0303 42.8898C13.0452 42.9194 13.0533 42.952 13.0541 42.9851C13.0559 43.0148 13.0513 43.0446 13.0407 43.0724C13.0301 43.1002 13.0138 43.1254 12.9927 43.1465C12.9717 43.1675 12.9465 43.1838 12.9187 43.1944C12.8908 43.205 12.8611 43.2096 12.8314 43.2078C12.7974 43.2089 12.7635 43.2017 12.7328 43.1871C12.702 43.1724 12.6752 43.1506 12.6545 43.1235L11.0406 41.516H10.2295V42.9714C10.2327 43.0024 10.2294 43.0338 10.2196 43.0634C10.2099 43.093 10.1939 43.1203 10.1729 43.1433C10.1519 43.1663 10.1262 43.1846 10.0976 43.197C10.0689 43.2094 10.038 43.2156 10.0068 43.2152ZM10.2295 41.0715H11.706C11.9002 41.072 12.0924 41.0324 12.2705 40.9551C12.445 40.8805 12.6034 40.7728 12.737 40.638C12.8698 40.5024 12.9766 40.3437 13.0523 40.1697C13.1289 39.9907 13.1684 39.798 13.1684 39.6033C13.1684 39.4086 13.1289 39.2159 13.0523 39.0369C12.9771 38.8618 12.8703 38.7021 12.737 38.5658C12.6034 38.4311 12.445 38.3234 12.2705 38.2487C12.0924 38.1715 11.9002 38.1319 11.706 38.1323H10.2295V41.0715ZM118.909 43.2005C118.879 43.2027 118.849 43.1986 118.821 43.1883C118.792 43.1779 118.766 43.1617 118.745 43.1407C118.723 43.1196 118.706 43.0942 118.695 43.0662C118.684 43.0381 118.679 43.008 118.68 42.9778V40.5253L116.847 38.0508C116.811 38.0063 116.793 37.9496 116.797 37.8922C116.801 37.8349 116.827 37.7813 116.869 37.7423C116.911 37.7033 116.967 37.682 117.024 37.6826C117.082 37.6832 117.137 37.7057 117.178 37.7456L117.196 37.7667C117.206 37.7813 117.248 37.8418 117.418 38.0728C117.476 38.1543 117.548 38.2561 117.634 38.3697C117.72 38.4833 117.829 38.6327 117.958 38.8041L118.416 39.409C118.562 39.6015 118.725 39.8202 118.907 40.0652C119.171 39.6986 119.435 39.3384 119.694 38.992C119.994 38.5915 120.294 38.18 120.588 37.7694L120.602 37.752C120.621 37.7299 120.645 37.7122 120.671 37.7003C120.698 37.6884 120.727 37.6826 120.756 37.6832C120.787 37.68 120.819 37.6834 120.848 37.6931C120.878 37.7029 120.905 37.7188 120.928 37.7399C120.951 37.7609 120.969 37.7866 120.982 37.8152C120.994 37.8438 121 37.8748 121 37.906C121.001 37.9644 120.979 38.021 120.94 38.0645L119.131 40.5198V42.9595C119.135 42.9904 119.132 43.0218 119.123 43.0515C119.113 43.0812 119.097 43.1085 119.076 43.1315C119.055 43.1544 119.029 43.1725 119.001 43.1844C118.972 43.1963 118.941 43.2018 118.909 43.2005ZM112.259 43.2005H110.755C110.388 43.2023 110.023 43.1287 109.685 42.9842C109.359 42.8456 109.062 42.6459 108.811 42.3958C108.561 42.1452 108.361 41.8503 108.22 41.5261C108.074 41.1859 107.999 40.8197 107.999 40.4497C107.999 40.0796 108.074 39.7135 108.22 39.3733C108.361 39.0468 108.561 38.7494 108.811 38.4962C109.061 38.2441 109.359 38.043 109.686 37.9041C110.024 37.7597 110.389 37.6861 110.756 37.6878H112.204C112.233 37.6871 112.262 37.6923 112.29 37.7031C112.317 37.714 112.342 37.7302 112.364 37.7509C112.385 37.7715 112.401 37.7963 112.413 37.8235C112.424 37.8508 112.43 37.8801 112.43 37.9096C112.432 37.9393 112.427 37.9691 112.416 37.9969C112.406 38.0247 112.39 38.0499 112.369 38.071C112.347 38.092 112.322 38.1083 112.294 38.1189C112.267 38.1295 112.237 38.1341 112.207 38.1323H110.756C110.449 38.1309 110.145 38.1933 109.863 38.3156C109.589 38.4345 109.341 38.6036 109.13 38.8142C108.919 39.0253 108.75 39.274 108.631 39.5474C108.508 39.8317 108.446 40.1385 108.448 40.4483C108.446 40.7545 108.508 41.0576 108.631 41.3382C108.87 41.8915 109.313 42.3322 109.866 42.57C110.148 42.6923 110.453 42.7547 110.76 42.7533H112.207C112.26 42.7537 112.31 42.7723 112.35 42.8059C112.39 42.8396 112.418 42.8861 112.427 42.9376C112.437 42.9892 112.428 43.0424 112.403 43.0882C112.377 43.134 112.337 43.1695 112.288 43.1886L112.259 43.2005ZM94.3476 43.2005H91.1866V37.6878H94.3256C94.3566 37.6846 94.388 37.688 94.4176 37.6977C94.4472 37.7075 94.4745 37.7234 94.4975 37.7444C94.5205 37.7655 94.5388 37.7912 94.5512 37.8198C94.5636 37.8484 94.5698 37.8794 94.5694 37.9105C94.5711 37.9402 94.5665 37.97 94.5559 37.9978C94.5454 38.0256 94.529 38.0508 94.508 38.0719C94.4869 38.0929 94.4617 38.1092 94.4339 38.1198C94.4061 38.1304 94.3764 38.135 94.3467 38.1332H91.6384C91.6384 38.4858 91.6384 38.8273 91.6384 39.1579C91.6384 39.4884 91.6384 39.8294 91.6384 40.1807H92.005C92.0361 40.1774 92.0674 40.1808 92.097 40.1906C92.1267 40.2003 92.1539 40.2163 92.1769 40.2373C92.2 40.2583 92.2183 40.284 92.2307 40.3126C92.2431 40.3413 92.2492 40.3722 92.2488 40.4034C92.2505 40.4331 92.246 40.4628 92.2354 40.4906C92.2248 40.5184 92.2085 40.5437 92.1874 40.5647C92.1664 40.5857 92.1412 40.6021 92.1133 40.6127C92.0855 40.6233 92.0558 40.6278 92.0261 40.6261H91.6394V42.7578H94.3402C94.3708 42.7551 94.4016 42.7589 94.4306 42.7689C94.4596 42.779 94.4862 42.795 94.5085 42.8161C94.5308 42.8371 94.5485 42.8627 94.5602 42.891C94.572 42.9194 94.5776 42.9499 94.5767 42.9806C94.5781 43.0107 94.5731 43.0408 94.5619 43.0688C94.5507 43.0968 94.5336 43.1221 94.5118 43.143C94.49 43.1638 94.464 43.1798 94.4355 43.1897C94.407 43.1996 94.3767 43.2033 94.3467 43.2005H94.3476ZM86.8186 43.2005H85.0773C84.707 43.2028 84.3402 43.1292 83.9995 42.9842C83.3391 42.7069 82.813 42.1827 82.5331 41.5233C82.3902 41.1828 82.3166 40.8172 82.3166 40.4478C82.3166 40.0785 82.3902 39.7129 82.5331 39.3723C82.6719 39.0453 82.8712 38.7474 83.1206 38.4943C83.3713 38.2423 83.6686 38.0412 83.9958 37.9023C84.3363 37.7575 84.7028 37.6839 85.0727 37.686H85.256C85.287 37.6828 85.3184 37.6861 85.348 37.6959C85.3777 37.7056 85.4049 37.7216 85.4279 37.7426C85.451 37.7637 85.4693 37.7893 85.4817 37.818C85.494 37.8466 85.5002 37.8775 85.4998 37.9087C85.5016 37.938 85.4973 37.9673 85.4871 37.9949C85.4769 38.0224 85.4611 38.0475 85.4406 38.0685C85.4202 38.0896 85.3955 38.1061 85.3683 38.1171C85.3411 38.1281 85.3119 38.1333 85.2826 38.1323H85.0773C84.77 38.1309 84.4657 38.1933 84.1837 38.3156C83.6287 38.5532 83.1863 38.9953 82.9483 39.5501C82.8254 39.8345 82.763 40.1413 82.765 40.451C82.7633 40.7572 82.8257 41.0604 82.9483 41.341C83.1875 41.8941 83.6292 42.3347 84.1828 42.5727C84.4647 42.6951 84.769 42.7575 85.0764 42.756H86.3686V39.8315H85.3504C85.3194 39.8347 85.288 39.8314 85.2584 39.8216C85.2288 39.8119 85.2015 39.7959 85.1785 39.7749C85.1555 39.7539 85.1372 39.7282 85.1248 39.6995C85.1124 39.6709 85.1062 39.64 85.1066 39.6088C85.1047 39.556 85.1224 39.5043 85.1562 39.4637C85.19 39.4232 85.2376 39.3965 85.2899 39.3888H85.3165H86.8205L86.8186 43.2005ZM77.6986 43.2005C77.6597 43.2028 77.6209 43.1944 77.5864 43.1763C77.5518 43.1582 77.5229 43.1311 77.5025 43.0979L77.4979 43.0896L75.1701 38.4751L72.9705 42.756H75.0885C75.1191 42.7533 75.1499 42.7571 75.1789 42.7671C75.2079 42.7771 75.2344 42.7932 75.2568 42.8142C75.2791 42.8353 75.2967 42.8608 75.3085 42.8892C75.3202 42.9175 75.3258 42.948 75.3249 42.9787C75.3267 43.0084 75.3221 43.0382 75.3115 43.066C75.3009 43.0938 75.2846 43.119 75.2636 43.14C75.2425 43.1611 75.2173 43.1774 75.1895 43.188C75.1617 43.1986 75.1319 43.2032 75.1022 43.2014H72.2345L75.1673 37.488L77.9168 42.9182V42.9897C77.9173 43.0182 77.912 43.0464 77.9011 43.0727C77.8903 43.0991 77.8741 43.1228 77.8536 43.1426C77.8332 43.1624 77.8088 43.1778 77.7822 43.1877C77.7555 43.1977 77.7271 43.202 77.6986 43.2005ZM62.2787 43.2005H59.1141V37.6878H62.2531C62.2841 37.6846 62.3154 37.688 62.3451 37.6977C62.3747 37.7075 62.4019 37.7234 62.425 37.7444C62.448 37.7655 62.4663 37.7912 62.4787 37.8198C62.4911 37.8484 62.4973 37.8794 62.4969 37.9105C62.4984 37.9398 62.4938 37.969 62.4835 37.9964C62.4731 38.0237 62.4572 38.0486 62.4366 38.0695C62.4161 38.0903 62.3915 38.1067 62.3643 38.1175C62.3371 38.1284 62.308 38.1334 62.2787 38.1323H59.5659C59.5659 38.4849 59.5659 38.8264 59.5659 39.157C59.5659 39.4875 59.5659 39.8284 59.5659 40.1798H59.9325C59.9635 40.1765 59.9949 40.1799 60.0245 40.1897C60.0542 40.1994 60.0814 40.2153 60.1044 40.2364C60.1275 40.2574 60.1458 40.2831 60.1582 40.3117C60.1705 40.3404 60.1767 40.3713 60.1763 40.4025C60.178 40.4322 60.1735 40.4619 60.1629 40.4897C60.1523 40.5175 60.136 40.5428 60.1149 40.5638C60.0939 40.5848 60.0686 40.6012 60.0408 40.6118C60.013 40.6223 59.9833 40.6269 59.9536 40.6252H59.5668V42.7569H62.2604C62.291 42.7542 62.3218 42.758 62.3508 42.768C62.3798 42.778 62.4063 42.7941 62.4287 42.8152C62.451 42.8362 62.4686 42.8617 62.4804 42.8901C62.4921 42.9184 62.4977 42.949 62.4969 42.9796C62.4983 43.0088 62.4936 43.0379 62.4832 43.0652C62.4728 43.0924 62.4568 43.1172 62.4363 43.138C62.4158 43.1587 62.3912 43.175 62.3641 43.1858C62.3369 43.1965 62.3079 43.2016 62.2787 43.2005ZM44.6602 43.2005C44.6284 43.2018 44.5968 43.196 44.5676 43.1834C44.5384 43.1709 44.5124 43.152 44.4915 43.1281C44.456 43.0865 44.4368 43.0334 44.4374 42.9787V37.9032C44.4362 37.874 44.4412 37.8448 44.452 37.8176C44.4629 37.7904 44.4793 37.7658 44.5004 37.7455C44.5214 37.7251 44.5466 37.7095 44.5741 37.6995C44.6016 37.6896 44.631 37.6856 44.6602 37.6878C44.7129 37.6861 44.7645 37.7038 44.805 37.7376C44.8455 37.7714 44.8723 37.8189 44.8801 37.8711V37.8986V42.9815C44.8802 43.0107 44.8745 43.0398 44.8634 43.0668C44.8523 43.0939 44.8359 43.1185 44.8152 43.1392C44.7944 43.1599 44.7698 43.1763 44.7428 43.1875C44.7157 43.1986 44.6867 43.2043 44.6574 43.2042L44.6602 43.2005ZM37.9285 43.2005C37.8988 43.2022 37.8691 43.1977 37.8413 43.1871C37.8135 43.1765 37.7883 43.1602 37.7672 43.1391C37.7462 43.1181 37.7298 43.0928 37.7193 43.065C37.7087 43.0372 37.7041 43.0075 37.7058 42.9778V38.1323H35.8362C35.8074 38.133 35.7789 38.1275 35.7524 38.1163C35.7258 38.1052 35.702 38.0885 35.6824 38.0675C35.6627 38.0465 35.6477 38.0216 35.6384 37.9944C35.6291 37.9672 35.6256 37.9383 35.6282 37.9096C35.6259 37.8804 35.6299 37.8511 35.6398 37.8236C35.6498 37.796 35.6654 37.7709 35.6858 37.7499C35.7061 37.7288 35.7307 37.7123 35.7579 37.7015C35.7851 37.6906 35.8143 37.6857 35.8435 37.6869H39.8852C39.9158 37.6865 39.9461 37.6927 39.9739 37.7052C40.0018 37.7177 40.0266 37.7362 40.0465 37.7593C40.0819 37.801 40.1011 37.854 40.1006 37.9087C40.1024 37.9384 40.0978 37.9681 40.0872 37.9959C40.0766 38.0237 40.0603 38.049 40.0392 38.07C40.0182 38.0911 39.993 38.1074 39.9651 38.118C39.9373 38.1286 39.9076 38.1331 39.8779 38.1314H38.1467V42.9631C38.1495 42.9938 38.1459 43.0247 38.1359 43.0538C38.1259 43.0829 38.1099 43.1096 38.0888 43.132C38.0678 43.1545 38.0422 43.1722 38.0137 43.184C37.9853 43.1958 37.9547 43.2014 37.924 43.2005H37.9285ZM31.0274 43.2005C30.9885 43.2028 30.9497 43.1944 30.9151 43.1763C30.8806 43.1582 30.8516 43.1311 30.8313 43.0979L30.8267 43.0896L28.4988 38.4751L26.2992 42.756H28.4172C28.4478 42.7533 28.4786 42.7571 28.5076 42.7671C28.5366 42.7771 28.5631 42.7932 28.5855 42.8142C28.6078 42.8353 28.6255 42.8608 28.6372 42.8892C28.649 42.9175 28.6546 42.948 28.6537 42.9787C28.6554 43.0084 28.6508 43.0382 28.6403 43.066C28.6297 43.0938 28.6133 43.119 28.5923 43.14C28.5713 43.1611 28.546 43.1774 28.5182 43.188C28.4904 43.1986 28.4607 43.2032 28.431 43.2014H25.5596L28.4924 37.488L31.2418 42.9182V42.9897C31.2424 43.0179 31.2371 43.046 31.2264 43.0721C31.2157 43.0982 31.1998 43.1218 31.1796 43.1416C31.1595 43.1613 31.1355 43.1767 31.1091 43.1869C31.0828 43.197 31.0547 43.2016 31.0265 43.2005H31.0274ZM21.1385 43.2005H17.9738V37.6878H21.1128C21.1438 37.6846 21.1752 37.688 21.2048 37.6977C21.2345 37.7075 21.2617 37.7234 21.2847 37.7444C21.3077 37.7655 21.3261 37.7912 21.3384 37.8198C21.3508 37.8484 21.357 37.8794 21.3566 37.9105C21.3583 37.9402 21.3538 37.97 21.3432 37.9978C21.3326 38.0256 21.3162 38.0508 21.2952 38.0719C21.2742 38.0929 21.2489 38.1092 21.2211 38.1198C21.1933 38.1304 21.1636 38.135 21.1339 38.1332H18.4257C18.4257 38.4858 18.4257 38.8273 18.4257 39.1579C18.4257 39.4884 18.4257 39.8294 18.4257 40.1807H18.7923C18.8233 40.1774 18.8546 40.1808 18.8843 40.1906C18.9139 40.2003 18.9411 40.2163 18.9642 40.2373C18.9872 40.2583 19.0055 40.284 19.0179 40.3126C19.0303 40.3413 19.0365 40.3722 19.036 40.4034C19.0378 40.4331 19.0332 40.4628 19.0226 40.4906C19.012 40.5184 18.9957 40.5437 18.9747 40.5647C18.9536 40.5857 18.9284 40.6021 18.9006 40.6127C18.8728 40.6233 18.843 40.6278 18.8133 40.6261H18.4266V42.7578H21.1275C21.158 42.7551 21.1888 42.7589 21.2178 42.7689C21.2468 42.779 21.2734 42.795 21.2957 42.8161C21.3181 42.8371 21.3357 42.8627 21.3475 42.891C21.3592 42.9194 21.3648 42.9499 21.3639 42.9806C21.3654 43.0107 21.3603 43.0408 21.3491 43.0688C21.3379 43.0968 21.3209 43.1221 21.2991 43.143C21.2772 43.1638 21.2512 43.1798 21.2227 43.1897C21.1942 43.1996 21.1639 43.2033 21.1339 43.2005H21.1385ZM5.26489 43.2005H3.75635C3.3885 43.2023 3.02418 43.1287 2.68589 42.9842C2.35961 42.8456 2.06283 42.6459 1.81156 42.3958C1.56183 42.1444 1.36133 41.8485 1.22043 41.5233C1.07498 41.1831 1 40.8169 1 40.4469C1 40.0769 1.07498 39.7107 1.22043 39.3705C1.36211 39.0461 1.56252 38.7506 1.81156 38.4989C2.06236 38.2469 2.35958 38.0459 2.68681 37.9069C3.02511 37.7624 3.38942 37.6888 3.75727 37.6906H5.20349C5.23303 37.6898 5.26242 37.695 5.28991 37.7059C5.31741 37.7167 5.34245 37.7329 5.36356 37.7536C5.38467 37.7743 5.40142 37.799 5.4128 37.8263C5.42419 37.8535 5.42999 37.8828 5.42986 37.9124C5.43119 37.9418 5.42632 37.9713 5.41556 37.9987C5.4048 38.0262 5.3884 38.0511 5.3674 38.0719C5.34641 38.0926 5.3213 38.1087 5.2937 38.1191C5.26609 38.1295 5.23661 38.134 5.20715 38.1323H3.75635C3.44901 38.1309 3.14473 38.1933 2.86277 38.3156C2.58934 38.4345 2.34064 38.6036 2.12958 38.8142C1.91899 39.0253 1.74987 39.274 1.63101 39.5474C1.50815 39.8317 1.44573 40.1385 1.44772 40.4483C1.44602 40.7545 1.50846 41.0576 1.63101 41.3382C1.869 41.8918 2.30968 42.3335 2.86277 42.5727C3.14472 42.695 3.44901 42.7575 3.75635 42.756H5.20349C5.25586 42.7564 5.30647 42.775 5.34662 42.8087C5.38676 42.8423 5.41394 42.8889 5.42348 42.9404C5.43302 42.9919 5.42433 43.0451 5.3989 43.0909C5.37348 43.1367 5.3329 43.1722 5.28414 43.1913L5.26489 43.2005Z" fill="#555555" stroke="#3A3A3A" stroke-width="0.5"/>
<path fill-rule="evenodd" clip-rule="evenodd" d="M61.3814 20.8237L73.1874 0.409912H70.1042C67.9819 4.08568 64.2777 10.4958 61.325 15.6078L60.3159 13.8318L68.065 0.409912H64.9818L58.7871 11.1401L57.7759 9.3601L62.943 0.409912H59.8599L56.2465 6.66841L55.2599 4.93195H42.8626C40.3117 4.93195 39.0727 5.06115 39.0727 5.06115C40.3458 3.13993 42.8626 3.1662 42.8626 3.1662H54.2405L52.6991 0.496046H43.0349C38.6334 0.496046 35.0675 4.06329 35.0675 8.46345C35.0675 12.8636 38.6334 16.4739 43.0349 16.4739H48.1168C48.3509 16.4739 48.5755 16.5669 48.7411 16.7325C48.9066 16.8981 48.9997 17.1226 48.9997 17.3568C48.9997 17.5909 48.9066 17.8155 48.7411 17.9811C48.5755 18.1466 48.3509 18.2397 48.1168 18.2397H38.198L36.6562 20.9098H47.6964C48.1784 20.9077 51.6883 20.7505 51.6883 16.6462C51.6883 16.6462 53.1526 16.8456 53.1526 18.6703C53.1526 18.6703 53.1526 22.6075 47.6947 22.6325H35.6618L34.12 25.3027H48.1598C49.8236 25.2931 51.4426 24.7632 52.7901 23.7873C54.1377 22.8114 55.1461 21.4384 55.6742 19.8607L58.7974 25.3027L60.3478 22.6325L51.6801 7.60211H53.7189L61.3814 20.8237ZM43.0349 7.60211H48.597L49.7103 9.52849C49.1999 9.42464 48.6806 9.37084 48.1598 9.36786H43.0349C42.8007 9.36786 42.5762 9.27484 42.4106 9.10927C42.245 8.9437 42.152 8.71913 42.152 8.48498C42.152 8.25083 42.245 8.02627 42.4106 7.86069C42.5762 7.69512 42.8007 7.60211 43.0349 7.60211ZM52.1651 13.933C52.1651 13.933 50.83 13.8038 48.5044 13.8038H43.4117C37.6567 13.7796 38.1252 9.84159 38.1252 9.84159C38.1252 8.01684 39.5895 7.81744 39.5895 7.81744C39.5895 11.8894 42.8854 12.0406 43.3988 12.038C43.4419 12.038 43.5835 12.038 43.7145 12.038H48.5044C48.5044 12.038 50.7357 11.8257 52.1651 13.933Z" fill="#3A3A3A"/>
<path fill-rule="evenodd" clip-rule="evenodd" d="M75.8593 0.539113L75.8089 0.409912L61.1989 25.3027C61.4719 25.4052 69.0599 25.3027 69.0599 25.3027L73.1741 18.1764C74.5742 20.6015 76.0204 23.1183 77.2913 25.3195H90.4L75.8593 0.539113ZM74.7154 15.5066L75.749 13.7193C76.9243 15.7568 78.1742 17.9744 79.3318 19.9796H82.415L75.7146 8.43761L67.5103 22.6497C66.7519 22.6497 66.068 22.6471 65.4741 22.6454L75.7452 4.85141C76.063 5.40267 83.9469 19.0928 85.9951 22.6493H78.8348L74.7154 15.5066Z" fill="#3A3A3A"/>
</svg>
