<svg width="133" height="53" viewBox="0 0 133 53" fill="none" xmlns="http://www.w3.org/2000/svg">
<path fill-rule="evenodd" clip-rule="evenodd" d="M64.4352 43.3379L92.3398 0H85.0524C80.036 7.80356 71.2808 21.412 64.3018 32.2648L61.9168 28.4942L80.2325 0H72.9451L58.3031 22.7798L55.913 19.001L68.1262 0H60.8388L52.2983 13.2866L49.9663 9.60016H20.664C14.6348 9.60016 11.7062 9.87445 11.7062 9.87445C14.7152 5.79575 20.664 5.85153 20.664 5.85153H47.5568L43.9136 0.18286H21.0712C10.6679 0.18286 2.23945 7.75601 2.23945 17.0974C2.23945 26.4388 10.6679 34.1034 21.0712 34.1034H33.0828C33.6363 34.1034 34.167 34.3009 34.5584 34.6524C34.9497 35.0039 35.1696 35.4806 35.1696 35.9777C35.1696 36.4748 34.9497 36.9516 34.5584 37.3031C34.167 37.6546 33.6363 37.8521 33.0828 37.8521H9.63881L5.99461 43.5207H32.0893C33.2284 43.5162 41.5245 43.1824 41.5245 34.4691C41.5245 34.4691 44.9855 34.8925 44.9855 38.7664C44.9855 38.7664 44.9855 47.1249 32.0852 47.1779H3.6442L0 52.8466H33.1846C37.117 52.8262 40.9438 51.7013 44.1288 49.6296C47.3138 47.5578 49.6973 44.643 50.9455 41.2935L58.3276 52.8466L61.9921 47.1779L41.5052 15.2688H46.3241L64.4352 43.3379ZM21.0712 15.2688H34.2178L36.8492 19.3585C35.6429 19.138 34.4156 19.0238 33.1846 19.0175H21.0712C20.5178 19.0175 19.987 18.82 19.5956 18.4685C19.2043 18.117 18.9844 17.6402 18.9844 17.1431C18.9844 16.646 19.2043 16.1693 19.5956 15.8178C19.987 15.4663 20.5178 15.2688 21.0712 15.2688ZM42.6514 28.709C42.6514 28.709 39.4958 28.4348 33.999 28.4348H21.9619C8.35927 28.3836 9.46678 20.0232 9.46678 20.0232C9.46678 16.1493 12.9277 15.726 12.9277 15.726C12.9277 24.3707 20.718 24.6916 21.9314 24.6861C22.0332 24.6861 22.3681 24.6861 22.6775 24.6861H33.999C33.999 24.6861 39.2729 24.2354 42.6514 28.709Z" fill="black" fill-opacity="0.04"/>
<path fill-rule="evenodd" clip-rule="evenodd" d="M98.6741 0.274584L98.5551 0L64.0655 52.9032C64.7101 53.121 82.6228 52.9032 82.6228 52.9032L92.3351 37.758C95.6403 42.912 99.0543 48.2609 102.055 52.9389H133L98.6741 0.274584ZM95.9738 32.0842L98.4138 28.2858C101.188 32.616 104.139 37.3288 106.872 41.5903H114.15L98.3325 17.0608L78.9648 47.2651C77.1745 47.2651 75.56 47.2596 74.158 47.2559L98.4046 9.43928C99.155 10.6108 117.766 39.7058 122.601 47.2641H105.698L95.9738 32.0842Z" fill="black" fill-opacity="0.04"/>
</svg>
