<svg width="34" height="15" viewBox="0 0 34 15" fill="none" xmlns="http://www.w3.org/2000/svg">
<path fill-rule="evenodd" clip-rule="evenodd" d="M16.9434 12.3039L23.8827 0.305054H22.0705C20.823 2.4656 18.6458 6.23333 16.9103 9.2381L16.3172 8.19415L20.8719 0.305054H19.0597L15.4185 6.61203L14.8241 5.5658L17.8613 0.305054H16.0491L13.9252 3.98368L13.3453 2.96302H6.05841C4.55907 2.96302 3.83078 3.03896 3.83078 3.03896C4.57907 1.90971 6.05841 1.92515 6.05841 1.92515H12.7461L11.8401 0.355682H6.15967C3.57258 0.355682 1.47659 2.45244 1.47659 5.03877C1.47659 7.6251 3.57258 9.74717 6.15967 9.74717H9.14672C9.28435 9.74717 9.41634 9.80184 9.51366 9.89916C9.61098 9.99648 9.66566 10.1285 9.66566 10.2661C9.66566 10.4037 9.61098 10.5357 9.51366 10.633C9.41634 10.7304 9.28435 10.785 9.14672 10.785H3.31666L2.41042 12.3545H8.89965C9.18292 12.3532 11.246 12.2608 11.246 9.84842C11.246 9.84842 12.1067 9.96563 12.1067 11.0382C12.1067 11.0382 12.1067 13.3524 8.89864 13.3671H1.82592L0.919678 14.9365H9.17203C10.1499 14.9309 11.1016 14.6195 11.8936 14.0458C12.6857 13.4722 13.2784 12.6652 13.5888 11.7379L15.4246 14.9365L16.3359 13.3671L11.2412 4.53249H12.4396L16.9434 12.3039ZM6.15967 4.53249H9.42897L10.0833 5.66478C9.78336 5.60374 9.47815 5.57211 9.17203 5.57036H6.15967C6.02204 5.57036 5.89005 5.51569 5.79273 5.41837C5.69541 5.32105 5.64073 5.18905 5.64073 5.05142C5.64073 4.91379 5.69541 4.7818 5.79273 4.68448C5.89005 4.58716 6.02204 4.53249 6.15967 4.53249ZM11.5262 8.25364C11.5262 8.25364 10.7415 8.1777 9.37455 8.1777H6.38117C2.99846 8.16352 3.27388 5.84881 3.27388 5.84881C3.27388 4.77626 4.13455 4.65906 4.13455 4.65906C4.13455 7.05249 6.07183 7.14135 6.37357 7.13983C6.39889 7.13983 6.48217 7.13983 6.55912 7.13983H9.37455C9.37455 7.13983 10.6861 7.01503 11.5262 8.25364Z" fill="white" fill-opacity="0.5"/>
<path fill-rule="evenodd" clip-rule="evenodd" d="M25.4532 0.380996L25.4236 0.305054L16.8361 14.9365C16.9966 14.9968 21.4566 14.9365 21.4566 14.9365L23.8749 10.7478C24.6978 12.1733 25.5479 13.6526 26.2949 14.9464H33.9999L25.4532 0.380996ZM24.7808 9.17861L25.3884 8.12808C26.0792 9.32569 26.8138 10.6291 27.4943 11.8077H29.3065L25.3681 5.02358L20.5458 13.3772C20.1 13.3772 19.6981 13.3757 19.349 13.3747L25.3861 2.91568C25.5729 3.2397 30.2069 11.2865 31.4108 13.3769H27.2021L24.7808 9.17861Z" fill="white" fill-opacity="0.5"/>
</svg>
